<?xml version="1.0" standalone="no"?>
<!DOCTYPE svg PUBLIC "-//W3C//DTD SVG 1.1//EN" "http://www.w3.org/Graphics/SVG/1.1/DTD/svg11.dtd" >
<svg>
<metadata>
Created by FontForge 20120731 at Sat Jun 29 22:29:18 2019
 By www
</metadata>
<defs>
<font id="ModestoW01-LiteRegular" horiz-adv-x="738" >
  <font-face 
    font-family="ModestoW01-LiteRegular"
    font-weight="400"
    font-stretch="normal"
    units-per-em="1000"
    panose-1="2 0 5 4 5 0 0 2 0 4"
    ascent="804"
    descent="-196"
    x-height="608"
    cap-height="761"
    bbox="-13 -168 1334 911"
    underline-thickness="20"
    underline-position="-133"
    unicode-range="U+0020-2122"
  />
<missing-glyph horiz-adv-x="0" 
 />
    <glyph glyph-name=".notdef" horiz-adv-x="0" 
 />
    <glyph glyph-name="glyph1" horiz-adv-x="0" 
 />
    <glyph glyph-name="glyph2" horiz-adv-x="0" 
 />
    <glyph glyph-name="space" unicode=" " horiz-adv-x="280" 
 />
    <glyph glyph-name="exclam" unicode="!" horiz-adv-x="297" 
d="M223 64q0 -35 -21.5 -53t-52.5 -18t-54 18t-23 53q0 32 23 52.5t54 20.5t52.5 -20.5t21.5 -52.5zM257 741q-23 0 -27 -32l-54 -446h-56l-53 446q-4 32 -27 32v20h217v-20z" />
    <glyph glyph-name="quotedbl" unicode="&#x22;" horiz-adv-x="324" 
d="M120 541h-63l-22 229h107zM267 541h-63l-22 229h107z" />
    <glyph glyph-name="numbersign" unicode="#" horiz-adv-x="602" 
d="M261 439l-32 -126h108l31 126h-107zM550 439h-88l-32 -126h90l-20 -75h-89l-51 -195h-94l50 195h-107l-50 -195h-89l49 195h-89l22 75h88l31 126h-93l22 77h92l53 200h87l-52 -200h109l51 200h95l-51 -200h88z" />
    <glyph glyph-name="dollar" unicode="$" horiz-adv-x="664" 
d="M554 233q0 -73 -43 -119t-123 -60v-105h-74v100q-43 1 -75.5 8t-58.5 7q-23 0 -42 -7l-28 178l25 5q11 -42 52 -65.5t127 -23.5q55 0 83 19.5t28 51.5t-15 51t-47 36l-125 66q-54 29 -79.5 69t-25.5 97q0 38 14.5 67t39 49.5t57.5 33t70 16.5v104h74v-103q21 -2 42.5 -5
t41.5 -3h12.5t12.5 1t13 2l21 -151l-23 -4q-9 36 -43 49t-104 13q-32 0 -52 -6t-31 -15t-14.5 -19t-3.5 -19q0 -22 10.5 -40t48.5 -37l105 -55q69 -36 99.5 -80t30.5 -106z" />
    <glyph glyph-name="percent" unicode="%" horiz-adv-x="943" 
d="M291 562q0 57 -20 84.5t-53 27.5t-52 -28.5t-19 -82.5q0 -57 18 -88t53 -31q38 0 55.5 30.5t17.5 87.5zM797 204q0 57 -20 84t-53 27t-52.5 -28t-19.5 -82q0 -57 18.5 -88t53.5 -31q38 0 55.5 30.5t17.5 87.5zM407 563q0 -48 -12.5 -88t-36.5 -68.5t-59 -44.5t-80 -16
t-80 16t-59.5 44.5t-37 68.5t-12.5 88t15 86.5t40.5 65.5t60 42t73.5 15t73.5 -15t60 -42t40 -65.5t14.5 -86.5zM310 -9h-117l446 782h119zM913 206q0 -48 -12.5 -88.5t-36.5 -69t-59 -44.5t-80 -16t-80 16t-59.5 45t-37 69t-12.5 88t15 86.5t40.5 65.5t60 41.5t73.5 14.5
t73.5 -14.5t60 -41.5t40 -65.5t14.5 -86.5z" />
    <glyph glyph-name="ampersand" unicode="&#x26;" horiz-adv-x="719" 
d="M303 396q-29 -11 -56 -27t-47.5 -38t-33 -50.5t-12.5 -63.5t10 -59t27 -39t39.5 -21.5t46.5 -6.5q43 0 76 22t64 66zM711 364q0 -20 -5 -38t-11 -32l-16 2q0 20 -12 30t-28 10q-18 0 -31 -8t-22.5 -24.5t-18.5 -42.5t-19 -62q8 -16 19 -37.5t22 -41.5q12 -24 27 -48
q17 -31 35.5 -41t35.5 -10v-21h-182l-40 81q-23 -26 -45.5 -44.5t-47.5 -30.5t-54 -18t-64 -6q-50 0 -92 15t-73 43.5t-48.5 70.5t-17.5 96q0 55 17 99t47.5 79.5t72.5 63.5t92 52l-121 231l13 29h322h31q8 0 18.5 1.5t20.5 4.5l40 -157l-23 -6q-9 23 -21.5 33.5t-33.5 10.5
h-24h-151l171 -336q11 39 25.5 65.5t32 42.5t38 22.5t43.5 6.5q21 0 35.5 -7.5t24 -19.5t14 -27t4.5 -31z" />
    <glyph glyph-name="quotesingle" unicode="'" horiz-adv-x="177" 
d="M120 541h-63l-22 229h107z" />
    <glyph glyph-name="parenleft" unicode="(" horiz-adv-x="364" 
d="M326 -66q-45 13 -92.5 47t-86 88.5t-63 130t-24.5 171.5q0 102 25.5 179.5t64.5 131t86 84.5t90 41v-46q-69 -43 -107 -141.5t-38 -248.5q0 -295 145 -390v-47z" />
    <glyph glyph-name="parenright" unicode=")" horiz-adv-x="364" 
d="M304 371q0 -96 -24.5 -171.5t-63 -130t-86 -88.5t-92.5 -47v47q145 95 145 390q0 150 -38 248.5t-107 141.5v46q43 -10 90 -41t86 -84.5t64.5 -131t25.5 -179.5z" />
    <glyph glyph-name="asterisk" unicode="*" horiz-adv-x="313" 
d="M201 645v0l57 -56l-68 -50l-33 73h-1l-32 -73l-69 49l55 57v0l-75 9l23 81l69 -39v1l-11 76h84l-16 -76l1 -1l72 39l21 -85z" />
    <glyph glyph-name="plus" unicode="+" horiz-adv-x="447" 
d="M267 283v-128h-87v128h-128v86h128v128h87v-128h128v-86h-128z" />
    <glyph glyph-name="comma" unicode="," horiz-adv-x="212" 
d="M182 48q0 -46 -36 -85t-91 -58l-24 40q23 9 40 24t23 26q-26 3 -45 19.5t-19 51.5q0 31 22 49t52 18q40 0 59 -25t19 -60z" />
    <glyph glyph-name="hyphen" unicode="-" horiz-adv-x="335" 
d="M30 274v104h275v-104h-275z" />
    <glyph glyph-name="period" unicode="." horiz-adv-x="211" 
d="M181 64q0 -35 -21.5 -53t-52.5 -18t-54 18t-23 53q0 32 23 52.5t54 20.5t52.5 -20.5t21.5 -52.5z" />
    <glyph glyph-name="slash" unicode="/" horiz-adv-x="404" 
d="M129 -64h-107l252 872h108z" />
    <glyph glyph-name="zero" unicode="0" 
d="M545 386q0 132 -49 201.5t-131 69.5q-85 0 -130 -71.5t-45 -196.5q0 -65 10.5 -117.5t32.5 -89.5t55 -57t77 -20q92 0 136 75.5t44 205.5zM683 389q0 -90 -21 -164t-61.5 -126.5t-99.5 -81t-135 -28.5t-135 29t-99 81.5t-61 126t-21 163.5q0 88 24.5 159.5t67 121.5
t100 77t124.5 27t124.5 -27t100.5 -77t67.5 -121.5t24.5 -159.5z" />
    <glyph glyph-name="one" unicode="1" 
d="M301 0v24q20 0 32 13t12 52v497q-41 -19 -79.5 -29.5t-69.5 -14.5v87q21 4 46.5 13t51 25t48.5 39t38 55h109q-3 -8 -6 -27t-3 -38v-607q0 -38 12.5 -51.5t32.5 -13.5v-24h-224z" />
    <glyph glyph-name="two" unicode="2" 
d="M607 -9q-11 5 -32 7t-42 2h-448q6 67 28.5 123.5t57 104.5t80 87t99.5 70q41 24 70.5 43t48 37.5t27.5 38.5t9 46q0 54 -39.5 80.5t-136.5 26.5q-44 0 -75.5 -7.5t-54 -20.5t-37.5 -30.5t-25 -37.5l-23 7l42 184q7 -1 13 -1h11q12 0 33 3.5t46.5 8t53 8.5t52.5 4
q71 0 123.5 -15.5t87.5 -44t52 -67.5t17 -86q0 -85 -43 -143.5t-115 -98.5q-67 -37 -107 -63.5t-62.5 -49t-32.5 -42.5t-16 -43h273q32 0 50 13t32 42l22 -5z" />
    <glyph glyph-name="three" unicode="3" 
d="M651 213q0 -46 -20 -86.5t-58 -71t-94.5 -48.5t-129.5 -18q-27 0 -56.5 4.5t-57 10t-52 10t-40.5 4.5q-4 0 -9.5 -0.5t-12.5 -1.5l-38 210l25 5q12 -27 27 -50t38 -39.5t58.5 -26t89.5 -9.5q102 0 146 29t44 89q0 67 -42.5 92.5t-127.5 25.5h-31v117h25q36 0 64 4.5
t48 15.5t30.5 30t10.5 49q0 49 -37.5 74t-132.5 25q-39 0 -68.5 -5.5t-51.5 -16t-38.5 -26.5t-29.5 -38l-22 8l37 172q6 -1 12 -1h13q9 0 27 3.5t42 8t52 8.5t58 4q134 0 206 -49.5t72 -136.5q0 -128 -114 -175v-5q68 -19 103 -69.5t35 -125.5z" />
    <glyph glyph-name="four" unicode="4" 
d="M423 628h-3l-200 -359v-3h203v362zM644 141q-11 4 -26 6.5t-34 2.5h-27v-63q0 -38 12 -52.5t35 -14.5v-20h-226v20q24 0 34.5 12t10.5 47v71h-365v77l289 478q8 14 12 31t4 25h225v-20q-14 0 -22.5 -11.5t-8.5 -28.5v-435h37q28 0 43.5 8t25.5 28l18 -5z" />
    <glyph glyph-name="five" unicode="5" 
d="M664 239q0 -53 -19 -98.5t-60.5 -79.5t-105.5 -53t-154 -19q-27 0 -54 3.5t-52 7.5t-45.5 7.5t-33.5 3.5h-11t-12 -1l-42 180l22 6q11 -21 24.5 -39t36 -31t58 -20t92.5 -7q114 0 164 36t50 107q0 69 -44 101t-133 32q-71 0 -109.5 -14t-60.5 -32l-71 33l70 399h351
q17 0 35.5 3t32.5 8l33 -174l-21 -5q-7 13 -15 22t-20 15t-28.5 8.5t-40.5 2.5h-225l-32 -176q13 4 26 8.5t30 8t38.5 5.5t51.5 2q57 0 107 -16.5t87 -48t58.5 -78t21.5 -107.5z" />
    <glyph glyph-name="six" unicode="6" 
d="M541 244q0 63 -34.5 94.5t-116.5 31.5q-66 0 -113.5 -19t-74.5 -39q0 -42 11.5 -79.5t34 -66t56.5 -45t79 -16.5q76 0 117 34t41 105zM680 250q0 -50 -18 -97t-54.5 -83.5t-92.5 -58.5t-131 -22q-83 0 -143.5 29.5t-100.5 80.5t-59 120.5t-19 150.5q0 95 24.5 170
t69.5 127t107.5 79.5t138.5 27.5q51 0 83.5 -9.5t56.5 -9.5q7 0 19 0.5t24 4.5l44 -192l-24 -9q-14 27 -30.5 45.5t-40 30.5t-55.5 17t-78 5q-41 0 -76 -11t-61 -38.5t-42.5 -75.5t-20.5 -122q18 14 38.5 28t46 25t56 17.5t68.5 6.5q69 0 120 -17.5t84 -49t49.5 -75
t16.5 -95.5z" />
    <glyph glyph-name="seven" unicode="7" 
d="M683 718q-63 -60 -114.5 -141t-87.5 -170t-55.5 -180t-19.5 -170q0 -20 8 -29t18 -8v-20h-182q1 48 10 105.5t24 118t36 121t47 115t57 101t65 78.5l-1 3h-271q-26 0 -43.5 -3t-29 -9t-19 -15t-13.5 -22l-20 6l34 172q13 -3 33.5 -6.5t38.5 -3.5h465z" />
    <glyph glyph-name="eight" unicode="8" 
d="M540 221q0 57 -47 85.5t-122 28.5q-79 0 -125.5 -29t-46.5 -88q0 -58 47 -85t125 -27t123.5 26t45.5 89zM499 555q0 55 -36.5 78.5t-92.5 23.5q-57 0 -93.5 -23t-36.5 -79q0 -53 35 -78t95 -25q58 0 93.5 25t35.5 78zM679 215q0 -39 -16 -79.5t-52.5 -73t-95.5 -53
t-144 -20.5q-86 0 -145.5 20.5t-96.5 53t-53 72.5t-16 78q0 68 39 116.5t113 71.5v3q-60 22 -85.5 65.5t-25.5 100.5q0 39 15.5 75.5t48.5 65t84 46t121 17.5q69 0 119.5 -17t83.5 -46t49 -66.5t16 -77.5q0 -56 -26 -98.5t-83 -64.5v-3q78 -23 114 -71t36 -115z" />
    <glyph glyph-name="nine" unicode="9" 
d="M533 451q0 42 -11.5 79.5t-34 66t-56.5 45t-79 16.5q-76 0 -117 -34t-41 -105q0 -63 34.5 -94.5t116.5 -31.5q66 0 113.5 19t74.5 39zM673 393q0 -95 -24.5 -170t-69.5 -127t-107.5 -79.5t-138.5 -27.5q-51 0 -83.5 9.5t-56.5 9.5q-7 0 -19 -0.5t-24 -4.5l-44 192l24 9
q14 -27 30.5 -45.5t40 -30.5t55.5 -17t78 -5q41 0 75.5 10.5t61 38.5t43 76t20.5 122q-18 -14 -38.5 -28t-46 -25t-56 -17.5t-68.5 -6.5q-69 0 -120 17.5t-84 49t-49.5 75t-16.5 95.5q0 50 18 97t54.5 83.5t92.5 58.5t131 22q83 0 143.5 -29.5t100.5 -80.5t59 -120.5
t19 -150.5z" />
    <glyph glyph-name="colon" unicode=":" horiz-adv-x="213" 
d="M183 64q0 -35 -22.5 -53t-53.5 -18t-54 18t-23 53q0 32 23 52.5t54 20.5t53.5 -20.5t22.5 -52.5zM183 395q0 -35 -22.5 -53t-53.5 -18t-54 18t-23 53q0 32 23 52.5t54 20.5t53.5 -20.5t22.5 -52.5z" />
    <glyph glyph-name="semicolon" unicode=";" horiz-adv-x="213" 
d="M182 48q0 -46 -36 -85t-91 -58l-24 40q23 8 40 23.5t23 26.5q-26 3 -45 19.5t-19 51.5q0 31 22 49t52 18q40 0 59 -25t19 -60zM183 395q0 -35 -22.5 -53t-53.5 -18t-54 18t-23 53q0 32 23 52.5t54 20.5t53.5 -20.5t22.5 -52.5z" />
    <glyph glyph-name="less" unicode="&#x3c;" horiz-adv-x="447" 
d="M60 295v64l327 145v-106l-180 -71l180 -71v-106z" />
    <glyph glyph-name="equal" unicode="=" horiz-adv-x="447" 
d="M72 193v94h303v-94h-303zM72 366v95h303v-95h-303z" />
    <glyph glyph-name="greater" unicode="&#x3e;" horiz-adv-x="447" 
d="M60 150v106l180 71l-180 71v106l327 -145v-64z" />
    <glyph glyph-name="question" unicode="?" horiz-adv-x="490" 
d="M292 64q0 -35 -21.5 -53t-52.5 -18t-54 18t-23 53q0 32 23 52.5t54 20.5t52.5 -20.5t21.5 -52.5zM455 608q0 -37 -10 -66.5t-28 -55t-43.5 -48t-56.5 -43.5q-41 -29 -57 -50.5t-16 -44.5q0 -10 3 -19t7 -14v-3h-89q-1 5 -1.5 10t-0.5 10q0 31 5 53.5t16 41.5t29 38.5
t44 45.5q65 64 65 115q0 37 -24 63t-87 26q-59 0 -94.5 -26.5t-58.5 -69.5l-23 8l42 184q6 -1 14 -2t15 -1q9 0 23.5 3t34 7t42.5 7t48 3q93 0 147 -43t54 -129z" />
    <glyph glyph-name="at" unicode="@" horiz-adv-x="915" 
d="M516 336q-54 -22 -79.5 -43.5t-25.5 -53.5q0 -30 13 -38.5t39 -8.5t39.5 16.5t13.5 36.5v91zM870 373q0 -56 -12 -104.5t-37 -84.5t-62 -56.5t-88 -20.5q-30 0 -51 4t-36 11.5t-26.5 18t-21.5 23.5q-19 -25 -45.5 -39t-63.5 -14q-56 0 -86 33.5t-30 87.5q0 31 14.5 56
t41.5 46.5t64.5 40t84.5 35.5v15q0 41 -15.5 56.5t-50.5 15.5q-42 0 -60 -12.5t-32 -35.5l-17 5l18 111q10 -3 20 -3q16 0 42 7.5t65 7.5q73 0 103 -35t30 -91v-221q0 -25 14 -39.5t45 -14.5q61 0 86.5 51.5t25.5 143.5q0 73 -22 133t-63.5 102.5t-100.5 65.5t-133 23
q-75 0 -136.5 -27.5t-106 -75t-69 -111t-24.5 -136.5q0 -82 24.5 -147t69 -110t106.5 -69t136 -24q45 0 84.5 10.5t75.5 29.5q7 -14 17 -36.5l18 -40.5q-47 -23 -93 -33.5t-102 -10.5q-97 0 -175.5 31t-134 87.5t-86 136t-30.5 176.5q0 89 32.5 167t89.5 136t135 91.5
t169 33.5t164.5 -29t125.5 -82t80.5 -126.5t28.5 -162.5z" />
    <glyph glyph-name="A" unicode="A" horiz-adv-x="680" 
d="M332 583h-2l-89 -333q19 -5 46 -9t49 -4q25 0 50.5 4t41.5 9zM454 0v20q16 0 23 6.5t7 23.5q0 11 -5 26l-17 57q-22 -6 -55 -10.5t-71 -4.5t-69.5 4.5t-57.5 10.5l-19 -60q-2 -7 -3 -14t-1 -12q0 -15 9 -21t27 -6v-20h-208v20q17 0 26 10t19 42l190 608q3 9 6.5 21.5
t3.5 18.5q0 9 -4 15t-16 6v20h198v-20q-15 0 -18 -10t-3 -14q0 -6 4 -19t7 -23l194 -599q11 -32 19.5 -44t25.5 -12v-20h-212z" />
    <glyph glyph-name="B" unicode="B" horiz-adv-x="651" 
d="M483 229q0 32 -13.5 54.5t-37 36.5t-54.5 20.5t-67 6.5q-29 0 -52.5 -1t-43.5 -2v-234q17 -2 42 -2.5t45 -0.5q85 0 133 29.5t48 92.5zM448 552q0 54 -35.5 77t-109.5 23q-21 0 -45 -0.5t-43 -1.5v-190q19 -1 44.5 -1.5t57.5 -0.5q69 0 100 27t31 67zM621 230
q0 -51 -18 -94.5t-57.5 -75t-102 -49.5t-150.5 -18q-66 0 -131.5 1.5t-121.5 5.5v20q25 1 33 10.5t8 39.5v631q0 23 -9 31.5t-32 8.5v20q25 1 56.5 2t64.5 2t64.5 1h57.5q147 0 225.5 -47t78.5 -156q0 -23 -7 -45.5t-19.5 -42.5t-30.5 -37t-39 -27v-2q25 -9 48.5 -24.5
t41.5 -37t29 -51t11 -66.5z" />
    <glyph glyph-name="C" unicode="C" horiz-adv-x="629" 
d="M560 0l-12 2q-5 1 -12 2t-15 1q-11 0 -26.5 -2.5t-34 -5.5t-37.5 -5.5t-36 -2.5q-81 0 -146.5 27t-111 77t-70 122.5t-24.5 164.5q0 89 24.5 161.5t70.5 124.5t111.5 80t146.5 28q15 0 33.5 -1.5t36.5 -4t33.5 -4t25.5 -1.5q15 0 27 3q7 1 14 3l33 -184l-22 -6
q-16 36 -58.5 57t-118.5 21q-51 0 -91.5 -19.5t-68.5 -55t-42.5 -86.5t-14.5 -114q0 -69 16.5 -120.5t46 -86.5t70 -52.5t89.5 -17.5q75 0 116.5 25t59.5 70l21 -4z" />
    <glyph glyph-name="D" unicode="D" horiz-adv-x="706" 
d="M532 390q0 126 -65 194t-180 68q-13 0 -33 -1t-36 -1v-541q13 -1 34 -1.5t35 -0.5q60 0 106 20.5t77 57.5t46.5 89.5t15.5 115.5zM671 389q0 -82 -21.5 -154t-70.5 -126t-128.5 -85t-196.5 -31q-24 0 -52.5 0.5t-57.5 1.5t-56 2t-48 3v20q25 1 33 10t8 32v635q0 26 -9 35
t-32 9v20q47 2 106.5 3.5t113.5 1.5q111 0 189 -25.5t127.5 -73.5t72 -118t22.5 -160z" />
    <glyph glyph-name="E" unicode="E" horiz-adv-x="609" 
d="M542 -8q-11 5 -26 6.5t-31 1.5h-445v20q25 0 33 9.5t8 38.5v625q0 29 -8 38.5t-33 9.5v20h447q12 0 27 2t23 5l37 -160l-23 -6q-8 18 -21 32t-47 14h-265v-171h251q23 0 32.5 7.5t11.5 27.5h21v-185h-21q-2 22 -10.5 29.5t-33.5 7.5h-251v-250h275q30 0 42.5 12.5
t20.5 32.5l23 -6z" />
    <glyph glyph-name="F" unicode="F" horiz-adv-x="604" 
d="M551 602q-9 21 -22.5 33.5t-47.5 12.5h-263v-180h251q39 0 39 35h22v-182h-22q0 17 -11 24.5t-29 7.5h-250v-280q0 -29 10.5 -41t32.5 -12v-20h-221v20q20 0 30.5 11t10.5 42v627q0 25 -10 33t-31 8v20h436q17 0 35 3t26 5l37 -161z" />
    <glyph glyph-name="G" unicode="G" horiz-adv-x="712" 
d="M686 372q-20 0 -28.5 -9.5t-8.5 -32.5v-212q0 -23 3.5 -35.5t10.5 -19.5v-2q-60 -31 -131.5 -51.5t-143.5 -20.5q-77 0 -142 25t-112 74.5t-73 124t-26 173.5q0 94 27.5 166.5t75.5 121.5t112 74.5t138 25.5q53 0 88 -7.5t48 -7.5q8 0 15 1t14 3t15 5l34 -186l-21 -8
q-16 40 -62.5 61.5t-124.5 21.5q-54 0 -95 -20t-68.5 -56t-41.5 -86t-14 -109q0 -134 58.5 -207.5t165.5 -73.5q45 0 73 8t48 20v197q0 23 -8.5 32.5t-28.5 9.5v23h203v-23z" />
    <glyph glyph-name="H" unicode="H" horiz-adv-x="730" 
d="M472 0v20q25 0 33 9.5t8 38.5v279h-295v-279q0 -29 8.5 -38.5t32.5 -9.5v-20h-218v20q25 0 33 9.5t8 38.5v625q0 29 -8.5 38.5t-33.5 9.5v20h219v-20q-24 0 -32.5 -9.5t-8.5 -38.5v-233h295v233q0 29 -8 38.5t-33 9.5v20h218v-20q-24 0 -32.5 -9.5t-8.5 -38.5v-625
q0 -29 8.5 -38.5t32.5 -9.5v-20h-218z" />
    <glyph glyph-name="I" unicode="I" horiz-adv-x="299" 
d="M40 0v20q25 0 33 9.5t8 38.5v625q0 29 -8 38.5t-33 9.5v20h219v-20q-24 0 -32.5 -9.5t-8.5 -38.5v-625q0 -29 8.5 -38.5t32.5 -9.5v-20h-219z" />
    <glyph glyph-name="J" unicode="J" horiz-adv-x="542" 
d="M507 741q-23 0 -32 -9t-9 -38v-502q0 -33 3.5 -49t9.5 -24v-2q-54 -63 -119.5 -95.5t-131.5 -32.5q-71 0 -122 21t-96 61l80 141l18 -9q-16 -32 -2 -50q6 -8 13.5 -16t20.5 -15.5t32 -12t47 -4.5q55 0 82.5 27.5t27.5 75.5v489q0 24 -8 34t-33 10v20h219v-20z" />
    <glyph glyph-name="K" unicode="K" horiz-adv-x="677" 
d="M471 0q-20 43 -39 92t-36.5 98.5t-32 97t-23.5 89.5l-122 -158v-152q0 -28 9 -37.5t32 -9.5v-20h-219v20q25 0 33 9t8 38v628q0 28 -9 37t-32 9v20h219v-20q-23 0 -32 -9.5t-9 -37.5v-293h2l222 295q8 11 11.5 18t3.5 12q0 9 -6 12t-18 3v20h224v-20q-16 0 -26 -5
t-24 -24l-161 -217q5 -26 15 -62t23 -76.5t28 -83.5t30.5 -82.5t29.5 -73.5t26 -57q14 -26 25 -33t34 -7v-20h-186z" />
    <glyph glyph-name="L" unicode="L" horiz-adv-x="575" 
d="M515 -11q-10 4 -24.5 7.5t-37.5 3.5h-413v20q21 0 31 7.5t10 40.5v635q0 25 -11 31.5t-30 6.5v20h221v-20q-20 0 -31.5 -6t-11.5 -38v-583h249q26 0 39 9.5t27 42.5l23 -6z" />
    <glyph glyph-name="M" unicode="M" horiz-adv-x="806" 
d="M551 0v20q23 0 32 9.5t9 37.5v444h-3l-161 -299h-61l-151 299h-2v-445q0 -30 9.5 -38t31.5 -8v-20h-214v20q23 0 32 9t9 37v632q0 26 -9.5 34.5t-32.5 8.5v20h194q0 -28 15 -58l156 -311h2l160 311q8 15 11.5 31.5t3.5 26.5h184v-20q-23 0 -32 -9t-9 -35v-630
q0 -28 9 -37.5t32 -9.5v-20h-215z" />
    <glyph glyph-name="N" unicode="N" horiz-adv-x="693" 
d="M488 0q1 11 -2 25t-11 28l-270 466h-2v-451q0 -30 8.5 -39t32.5 -9v-20h-204v20q25 0 33 9t8 39v631q0 23 -9 32.5t-32 9.5v20h192q1 -9 5.5 -25t14.5 -33l235 -403h2v400q0 23 -9 32t-32 9v20h204v-20q-23 0 -32 -8.5t-9 -34.5v-634q0 -30 10 -37t32 -7v-20h-165z" />
    <glyph glyph-name="O" unicode="O" horiz-adv-x="736" 
d="M562 379q0 58 -13 109t-37.5 88.5t-61 59t-82.5 21.5q-44 0 -79.5 -20t-61 -56.5t-39.5 -87.5t-14 -113q0 -55 13 -105t38 -87.5t61 -59.5t82 -22t82.5 23t61 61t37.5 87t13 102zM701 380q0 -87 -22 -159t-65 -123.5t-105 -80t-141 -28.5q-76 0 -137.5 26.5t-105 77
t-67 123t-23.5 164.5q0 86 23.5 158.5t67 125t105 81.5t137.5 29t137.5 -29t105 -81.5t67 -125t23.5 -158.5z" />
    <glyph glyph-name="P" unicode="P" horiz-adv-x="637" 
d="M468 523q0 34 -12.5 58t-35 40t-53.5 23.5t-67 7.5h-48t-36 -1v-253q36 -3 79 -3q90 0 131.5 34t41.5 94zM607 523q0 -55 -20.5 -99t-61 -75.5t-99.5 -48.5t-135 -17q-16 0 -37.5 1t-37.5 3v-219q0 -29 9 -38.5t32 -9.5v-20h-217v20q25 0 33 9.5t8 38.5v631q0 24 -9 33
t-32 9v19q25 1 56.5 2.5t65 2.5t66.5 1.5t61 0.5q77 0 136.5 -13t100 -42.5t61 -76t20.5 -112.5z" />
    <glyph glyph-name="Q" unicode="Q" horiz-adv-x="745" 
d="M553 379q0 58 -12 109t-36 88.5t-59.5 59t-81.5 21.5q-44 0 -79 -20t-59.5 -56.5t-37.5 -87.5t-13 -113q0 -55 12 -105t36 -87.5t59.5 -60t81.5 -22.5q33 0 56.5 8.5t41.5 22.5q-15 31 -33 53t-34 22q-17 0 -26 -3t-17 -11l-11 18q15 20 33 34.5t53 14.5q26 0 49.5 -19.5
t40.5 -42.5q19 37 27.5 85t8.5 92zM737 105q-4 -24 -12.5 -45.5t-21.5 -38.5t-31 -27t-42 -10q-34 0 -55 15.5t-39 38.5q-33 -22 -77 -35.5t-95 -13.5q-76 0 -137 27t-103.5 77.5t-65.5 122.5t-23 162q0 94 25 167.5t69.5 124.5t104.5 77.5t130 26.5q68 0 128 -26
t104.5 -76.5t70.5 -124t26 -167.5q0 -80 -19.5 -151.5t-60.5 -123.5q4 -3 12 -7t16.5 -8t17 -7t14.5 -3q15 0 25.5 8t21.5 28z" />
    <glyph glyph-name="R" unicode="R" horiz-adv-x="646" 
d="M473 525q0 61 -41 94.5t-130 33.5h-43.5t-44.5 -2v-246q6 0 17.5 -0.5t25 -1t27.5 -0.5h26q78 0 120.5 34.5t42.5 87.5zM432 0q-16 31 -32.5 69.5t-30.5 77.5t-25 76t-17 67q-12 -1 -26.5 -1h-28.5q-15 0 -30.5 0.5t-27.5 1.5v-224q0 -28 9 -37.5t32 -9.5v-20h-215v20
q25 0 33 9t8 38v634q0 23 -9 31.5t-32 8.5v19q25 1 59 2.5t69 2.5t67.5 1.5t53.5 0.5q79 0 139.5 -12.5t101.5 -41t61.5 -74.5t20.5 -114q0 -42 -14 -75.5t-36.5 -58.5t-50.5 -43t-56 -29q8 -31 22.5 -70t30.5 -77.5t32 -73t28 -55.5q8 -14 18.5 -18.5t29.5 -4.5v-20h-184z
" />
    <glyph glyph-name="S" unicode="S" horiz-adv-x="542" 
d="M522 207q0 -103 -65.5 -160.5t-190.5 -57.5q-34 0 -62 4.5t-49.5 9.5t-36 9.5t-21.5 4.5q-13 0 -25.5 -3t-20.5 -6l-31 198l24 5q7 -21 20 -40.5t36.5 -33.5t59 -22.5t88.5 -8.5q142 0 142 91q0 38 -23.5 63t-65.5 48l-129 68q-57 30 -92 77.5t-35 113.5q0 52 20 91
t53.5 64.5t78 38.5t93.5 13q28 0 49.5 -2.5t37.5 -5.5t28 -5.5t21 -2.5q16 0 28 3q7 1 13 3l23 -187l-22 -5q-7 20 -19.5 36t-32 26.5t-48 16t-67.5 5.5q-37 0 -61.5 -6.5t-38.5 -17t-20 -25t-6 -29.5q0 -30 19 -51t63 -44l111 -58q32 -17 60 -37.5t49 -47t33 -59.5t12 -74z
" />
    <glyph glyph-name="T" unicode="T" horiz-adv-x="652" 
d="M618 602q-7 21 -22.5 33.5t-43.5 12.5h-159v-578q0 -17 2.5 -27t7.5 -15t13 -6.5t19 -1.5v-20h-219v20q11 0 19 1.5t13 6.5t7.5 15t2.5 27v578h-157q-27 0 -44 -12.5t-23 -33.5l-23 6l37 160q6 -2 19.5 -4.5t35.5 -2.5h456q12 0 25 2.5t20 4.5l37 -160z" />
    <glyph glyph-name="U" unicode="U" horiz-adv-x="689" 
d="M654 741q-23 0 -32 -9t-9 -37v-514q0 -22 3.5 -39t11.5 -27v-2q-35 -28 -68 -51t-66.5 -39t-69 -25t-76.5 -9q-44 0 -80.5 7t-70 22t-66 38t-68.5 55v2q7 13 10 31t3 35v511q0 29 -7 40t-34 11v20h218v-20q-25 0 -33 -10t-8 -41v-474q0 -54 31.5 -82t107.5 -28
q71 0 103 31t32 77v479q0 29 -8.5 38.5t-32.5 9.5v20h209v-20z" />
    <glyph glyph-name="V" unicode="V" horiz-adv-x="684" 
d="M670 741q-20 0 -27 -11t-15 -34l-188 -598q-5 -14 -10 -30.5t-5 -26.5q0 -21 20 -21v-20h-202v20q22 0 22 18q0 10 -6.5 31t-14.5 47l-185 569q-10 31 -20 43.5t-25 12.5v20h213v-20q-17 0 -24.5 -4t-7.5 -17q0 -11 4 -23l149 -519h2l140 513q2 7 3 15.5t1 15.5
q0 19 -36 19v20h212v-20z" />
    <glyph glyph-name="W" unicode="W" horiz-adv-x="842" 
d="M828 741q-18 0 -28 -10t-15 -34l-119 -597q-3 -14 -6 -29.5t-3 -29.5q0 -6 6 -13.5t17 -7.5v-20h-185v20q23 0 23 22q0 14 -6 32.5t-11 32.5l-74 228h-2l-77 -237q-5 -13 -9.5 -28t-4.5 -29q0 -6 6 -13.5t17 -7.5v-20h-198v20q23 0 23 23q0 12 -3.5 29.5t-7.5 34.5
l-117 590q-5 28 -16 36t-24 8v20h210v-20q-31 0 -31 -20q0 -4 0.5 -9t1.5 -12l83 -487h2q25 81 48 156q10 32 20 65.5t20 65t18.5 59.5t15.5 49h48q6 -20 15 -47.5t18.5 -58t20 -63.5t20.5 -64q23 -73 48 -153h2l79 470q3 15 3 25q0 24 -31 24v20h203v-20z" />
    <glyph glyph-name="X" unicode="X" horiz-adv-x="678" 
d="M420 0v20q14 0 22.5 3t8.5 10q0 6 -2.5 11.5t-7.5 15.5l-114 208h-2l-107 -208q-5 -9 -7.5 -14.5t-2.5 -11.5q0 -14 30 -14v-20h-218v20q21 0 32.5 8t28.5 37l177 313l-176 314q-8 15 -14.5 24.5t-13 15t-14.5 7.5t-20 2v20h229v-20q-11 0 -15.5 -4.5t-4.5 -9.5
q0 -10 10 -28l113 -213h2l109 213q7 14 7 27q0 7 -4.5 11t-16.5 4v20h209v-20q-12 0 -20 -2t-14.5 -7.5t-13 -15t-14.5 -24.5l-176 -314l177 -311q16 -29 27 -38t34 -9v-20h-238z" />
    <glyph glyph-name="Y" unicode="Y" horiz-adv-x="665" 
d="M651 741q-11 0 -18.5 -1.5t-13 -6.5t-11 -14t-13.5 -24l-196 -379v-248q0 -29 8.5 -38.5t32.5 -9.5v-20h-217v20q23 0 32 9.5t9 38.5v248l-194 377q-8 15 -13.5 24.5t-11 15t-12.5 7t-19 1.5v20h221v-20q-25 0 -25 -15q0 -11 7 -26l121 -264h2l117 260q9 19 9 33
q0 6 -5.5 9t-20.5 3v20h211v-20z" />
    <glyph glyph-name="Z" unicode="Z" horiz-adv-x="610" 
d="M539 -8q-8 4 -18.5 6t-30.5 2h-434l-26 46l356 602h-255q-26 0 -43.5 -10.5t-25.5 -35.5l-23 6l37 160q7 -2 15 -4q13 -3 31 -3h418l28 -49l-354 -598h279q26 0 40.5 12.5t23.5 39.5l23 -6z" />
    <glyph glyph-name="bracketleft" unicode="[" horiz-adv-x="338" 
d="M100 -64v872h212v-47h-94v-779h96v-46h-214z" />
    <glyph glyph-name="backslash" unicode="\" horiz-adv-x="404" 
d="M275 -64l-253 872h108l252 -872h-107z" />
    <glyph glyph-name="bracketright" unicode="]" horiz-adv-x="338" 
d="M24 -64v46h96v779h-94v47h212v-872h-214z" />
    <glyph glyph-name="asciicircum" unicode="^" horiz-adv-x="500" 
d="M340 411l-92 219h-2l-88 -219h-113l156 350h97l158 -350h-116z" />
    <glyph glyph-name="underscore" unicode="_" horiz-adv-x="750" 
d="M-2 -140v47h754v-47h-754z" />
    <glyph glyph-name="grave" unicode="`" horiz-adv-x="590" 
d="M263 681l-114 87h123l73 -87h-82z" />
    <glyph glyph-name="a" unicode="a" horiz-adv-x="571" 
d="M276 461h-2l-69 -261q15 -4 37 -7t39 -3q20 0 40 3t34 7zM375 0v20q25 0 25 22q0 4 -1 9.5t-3 10.5l-13 41q-44 -11 -102 -11q-27 0 -54.5 3t-49.5 8l-14 -44q-3 -11 -3 -20q0 -19 31 -19v-20h-181v20q14 0 22 7t16 33l156 482q2 7 5 16.5t3 14.5q0 7 -3 11t-14 4v20h170
v-20q-13 0 -15.5 -7.5t-2.5 -9.5q0 -5 3.5 -15t6.5 -18l165 -475q9 -26 16 -34.5t23 -8.5v-20h-186z" />
    <glyph glyph-name="b" unicode="b" horiz-adv-x="550" 
d="M402 182q0 25 -11 42t-29.5 27t-44 14.5t-55.5 4.5q-23 0 -41.5 -0.5t-35.5 -1.5v-169q14 -1 34 -2t36 -1q71 0 109 19t38 67zM374 439q0 42 -28.5 58t-89.5 16q-17 0 -36 -0.5t-35 -1.5v-139q16 -1 36.5 -1h46.5q57 0 81.5 19t24.5 49zM524 183q0 -41 -15.5 -76
t-48.5 -60.5t-85.5 -40t-126.5 -14.5q-54 0 -109.5 2.5t-103.5 5.5v20q21 1 27 8t6 30v500q0 17 -6.5 23.5t-26.5 6.5v20q22 1 48.5 2.5t54 3t53.5 2.5t48 1q123 0 189.5 -40t66.5 -129q0 -18 -6 -36t-16.5 -34.5t-24.5 -30t-30 -21.5v-2q20 -7 39 -19t34 -29t24 -40t9 -53z
" />
    <glyph glyph-name="c" unicode="c" horiz-adv-x="536" 
d="M476 1l-12 2q-5 1 -11 1.5t-12 0.5q-9 0 -22 -2t-28.5 -4.5t-31.5 -4.5t-30 -2q-65 0 -119.5 20t-94.5 59.5t-62.5 97.5t-22.5 133q0 76 22.5 134.5t63 98.5t95 61t119.5 21q13 0 28 -2l30 -4t28.5 -4t21.5 -2q11 0 22 3.5t13 4.5l29 -164l-22 -7q-8 17 -18.5 30
t-27.5 22t-41.5 14t-59.5 5q-85 0 -133 -54.5t-48 -154.5q0 -52 14 -91t38.5 -65t58.5 -39t74 -13q66 0 98 18t48 54l21 -5z" />
    <glyph glyph-name="d" unicode="d" horiz-adv-x="591" 
d="M437 306q0 103 -49 155t-146 52q-11 0 -26.5 -1t-29.5 -1v-413q11 -1 28 -1.5t28 -0.5q100 0 147.5 53.5t47.5 156.5zM561 309q0 -70 -17.5 -128.5t-57.5 -100.5t-105 -65t-160 -23q-20 0 -45 1t-50.5 2t-49 2.5t-41.5 2.5v20q21 1 27 7t6 24v504q0 20 -6.5 26.5
t-26.5 6.5v20q15 1 39.5 2.5t52 3t55.5 2.5t50 1q83 0 144.5 -21t102.5 -60.5t61.5 -96.5t20.5 -130z" />
    <glyph glyph-name="e" unicode="e" horiz-adv-x="523" 
d="M456 -9q-11 5 -23 7t-25 2h-373v20q21 0 27 7t6 29v496q0 22 -6 29t-27 7v20h376q16 0 25.5 2t17.5 4l32 -135l-21 -6q-7 17 -18 27t-37 10h-224v-128h211q19 0 25.5 6t8.5 22h20v-154h-20q-2 18 -8 23t-26 5h-211v-186h229q25 0 35.5 13.5t17.5 33.5l22 -7z" />
    <glyph glyph-name="f" unicode="f" horiz-adv-x="515" 
d="M465 473q-8 20 -19.5 28.5t-40.5 8.5h-219v-136h211q17 0 23.5 6.5t6.5 21.5h20v-152h-20q0 26 -31 26h-210v-216q0 -23 8 -31.5t27 -8.5v-20h-186v20q17 0 25 8t8 32v497q0 19 -7 25t-26 6v20h366q37 0 53 7l32 -136z" />
    <glyph glyph-name="g" unicode="g" horiz-adv-x="607" 
d="M577 296q-17 0 -24 -8t-7 -25v-166q0 -16 4.5 -26.5t9.5 -15.5v-2q-51 -26 -107.5 -43.5t-117.5 -17.5q-74 0 -131 22.5t-95.5 64t-58.5 99.5t-20 129q0 75 23.5 133t64 97.5t94 59.5t114.5 20q44 0 73 -6t40 -6q13 0 23.5 3t15.5 5l29 -162l-21 -6q-7 16 -18 28.5
t-29 21.5t-44.5 13.5t-63.5 4.5q-87 0 -133 -56t-46 -150q0 -53 14 -92.5t38.5 -66t58 -39.5t72.5 -13q37 0 59.5 5.5t39.5 14.5v147q0 17 -6 24.5t-23 7.5v21h172v-20z" />
    <glyph glyph-name="h" unicode="h" horiz-adv-x="617" 
d="M396 0v20q21 0 27.5 7t6.5 29v216h-243v-216q0 -22 7 -29t27 -7v-20h-185v20q21 0 27 7t6 29v496q0 22 -6.5 29t-27.5 7v20h186v-20q-20 0 -27 -7t-7 -29v-182h243v182q0 22 -6.5 29t-27.5 7v20h186v-20q-20 0 -27.5 -7t-7.5 -29v-496q0 -22 7.5 -29t27.5 -7v-20h-186z
" />
    <glyph glyph-name="i" unicode="i" horiz-adv-x="255" 
d="M35 0v20q21 0 27.5 7t6.5 29v496q0 22 -6.5 29t-27.5 7v20h185v-20q-20 0 -26.5 -7t-6.5 -29v-496q0 -22 6.5 -29t26.5 -7v-20h-185z" />
    <glyph glyph-name="j" unicode="j" horiz-adv-x="451" 
d="M421 588q-20 0 -27 -6.5t-7 -28.5v-405q0 -26 3.5 -38.5t8.5 -19.5v-2q-46 -51 -95.5 -73.5t-106.5 -22.5q-60 0 -103 19t-82 52l71 123l18 -9q-7 -11 -7 -22t3 -18q3 -6 9 -13.5t17 -13.5t27.5 -10t39.5 -4q45 0 62.5 21t17.5 59v379q0 18 -6.5 25.5t-27.5 7.5v20h185
v-20z" />
    <glyph glyph-name="k" unicode="k" horiz-adv-x="571" 
d="M393 0q-15 31 -31 69t-30.5 77t-26.5 77.5t-20 71.5l-99 -122v-118q0 -22 6.5 -28.5t26.5 -6.5v-20h-184v20q21 0 27 6.5t6 28.5v499q0 22 -6.5 28t-26.5 6v20h184v-20q-20 0 -26.5 -6.5t-6.5 -28.5v-227h2l183 230q7 9 9 14t2 8q0 10 -20 10v20h190v-20q-12 0 -21 -3.5
t-20 -18.5l-133 -173q6 -31 21 -78t33.5 -96.5t38 -95t33.5 -72.5q11 -20 20 -25.5t29 -5.5v-20h-160z" />
    <glyph glyph-name="l" unicode="l" horiz-adv-x="493" 
d="M435 -9q-12 5 -26 7t-26 2h-348v20q18 0 25.5 5t7.5 31v504q0 19 -8 23.5t-25 4.5v20h186v-20q-17 0 -26 -4t-9 -29v-457h209q23 0 34.5 14.5t17.5 32.5l22 -7z" />
    <glyph glyph-name="m" unicode="m" horiz-adv-x="685" 
d="M464 0v20q20 0 27.5 6.5t7.5 28.5v336h-2l-132 -230h-53l-125 228h-2v-335q0 -23 7.5 -28.5t26.5 -5.5v-20h-183v20q20 0 26.5 6t6.5 28v502q0 20 -7 26t-27 6v20h169q0 -23 12 -47l129 -245h2l131 245q6 12 9.5 24.5t2.5 22.5h160v-20q-20 0 -27.5 -6.5t-7.5 -26.5v-500
q0 -22 7.5 -28.5t27.5 -6.5v-20h-186z" />
    <glyph glyph-name="n" unicode="n" horiz-adv-x="584" 
d="M409 0q0 25 -11 43l-222 365h-2v-352q0 -23 7 -29.5t28 -6.5v-20h-174v20q21 0 27 6.5t6 29.5v501q0 18 -6.5 24.5t-26.5 6.5v20h163q1 -8 4 -19t13 -28l192 -317h2v313q0 18 -7 24.5t-27 6.5v20h174v-20q-20 0 -27 -6t-7 -26v-503q0 -20 7.5 -26.5t26.5 -6.5v-20h-140z
" />
    <glyph glyph-name="o" unicode="o" horiz-adv-x="613" 
d="M461 303q0 46 -10 84.5t-29.5 66.5t-48.5 43.5t-67 15.5q-71 0 -112.5 -55t-41.5 -154q0 -43 10 -80.5t29.5 -66t48 -45t66.5 -16.5t67 16.5t48.5 45t29.5 66t10 79.5zM583 304q0 -69 -18.5 -126.5t-53.5 -99t-86.5 -64t-118.5 -22.5q-64 0 -115 21.5t-87 62t-55 98.5
t-19 130q0 69 19.5 126.5t55.5 99t87 64.5t114 23q64 0 115 -23t87 -64.5t55.5 -99t19.5 -126.5z" />
    <glyph glyph-name="p" unicode="p" horiz-adv-x="534" 
d="M390 416q0 56 -35.5 76.5t-101.5 20.5q-23 0 -38 -0.5t-29 -1.5v-187q14 -1 30.5 -2t33.5 -1q74 0 107 20.5t33 74.5zM512 416q0 -94 -68.5 -146.5t-197.5 -52.5q-13 0 -29.5 0.5t-30.5 1.5v-163q0 -22 6.5 -29t26.5 -7v-20h-184v20q21 0 27 7t6 29v502q0 18 -6.5 24.5
t-26.5 6.5v19q21 1 48 2.5t55.5 3t56 2.5t50.5 1q130 0 198.5 -47t68.5 -154z" />
    <glyph glyph-name="q" unicode="q" horiz-adv-x="626" 
d="M461 301q0 46 -10 85t-29.5 67.5t-48.5 44t-67 15.5q-72 0 -113 -56t-41 -155q0 -44 10 -81.5t29.5 -65.5t48 -43.5t66.5 -15.5q27 0 47 7.5t35 18.5q-15 27 -26 40t-37 13q-5 0 -11.5 -2.5t-11.5 -4.5l-10 20q17 12 34.5 21.5t39.5 9.5q17 0 36 -14t33 -40q14 24 20 63
t6 73zM618 88q-7 -39 -27 -68t-63 -29q-29 0 -47 13.5t-32 30.5q-24 -17 -57.5 -30t-85.5 -13q-64 0 -115 21.5t-87 61.5t-55 97t-19 129q0 75 21 133.5t58 99t87.5 62t109.5 21.5q57 0 107.5 -21t88 -61t59.5 -99t22 -134q0 -63 -19 -117.5t-49 -91.5q11 -11 25.5 -18
t23.5 -7q12 0 21 6t18 23z" />
    <glyph glyph-name="r" unicode="r" horiz-adv-x="545" 
d="M391 417q0 48 -31 72t-105 24q-17 0 -34.5 -0.5t-34.5 -1.5v-183q11 -1 33.5 -1.5t41.5 -0.5q64 0 97 25t33 66zM362 0q-13 24 -27 54t-26 61t-21.5 59t-13.5 49q-10 -1 -21 -1h-23h-23t-21 1v-168q0 -22 6.5 -28.5t26.5 -6.5v-20h-184v20q21 0 27 6.5t6 28.5v504
q0 17 -6.5 23.5t-26.5 6.5v19q21 1 50 2.5t58.5 3t56.5 2.5t45 1q63 0 112.5 -11t84 -35t53 -62t18.5 -92q0 -34 -11.5 -60.5t-29.5 -47t-41 -34.5t-46 -23q6 -25 18 -55.5t25.5 -60.5t27 -56t23.5 -43q6 -10 15 -13.5t26 -3.5v-20h-158z" />
    <glyph glyph-name="s" unicode="s" horiz-adv-x="468" 
d="M444 166q0 -82 -57 -128t-163 -46q-51 0 -86 8t-47 8q-11 0 -21.5 -1t-18.5 -3l-26 170l23 4q4 -17 14.5 -32t30 -26t49.5 -17.5t75 -6.5q58 0 83.5 17.5t25.5 45.5q0 29 -13.5 46t-47.5 35l-118 62q-51 27 -76.5 64t-25.5 91q0 40 17.5 70.5t46.5 50t67 29.5t79 10
q29 0 56 -5.5t55 -5.5q5 0 12 0.5t12 1.5l12 2l20 -157l-22 -5q-12 35 -42.5 50t-96.5 15q-29 0 -48 -4.5t-30 -11.5t-15.5 -16t-4.5 -19q0 -23 11 -37.5t46 -33.5l99 -52q66 -35 95.5 -74.5t29.5 -98.5z" />
    <glyph glyph-name="t" unicode="t" horiz-adv-x="525" 
d="M486 473q-13 37 -51 37h-114v-452q0 -25 7.5 -31.5t26.5 -6.5v-20h-187v20q19 0 27.5 7.5t8.5 30.5v452h-113q-41 0 -52 -37l-21 6l32 135q7 -2 18 -4t29 -2h339q10 0 20.5 2t18.5 4l32 -135z" />
    <glyph glyph-name="u" unicode="u" horiz-adv-x="581" 
d="M551 588q-20 0 -27.5 -6t-7.5 -28v-411q0 -15 4.5 -30.5t10.5 -22.5v-2q-30 -23 -58 -40.5t-56.5 -30t-58.5 -19t-64 -6.5q-37 0 -68 5.5t-59.5 17t-56.5 29.5t-58 44v2q6 8 9 23t3 29v408q0 23 -5.5 30.5t-28.5 7.5v20h185v-20q-21 0 -27.5 -7t-6.5 -31v-357
q0 -52 25.5 -74.5t89.5 -22.5q59 0 83.5 23.5t24.5 72.5v360q0 23 -6.5 29.5t-26.5 6.5v20h180v-20z" />
    <glyph glyph-name="v" unicode="v" horiz-adv-x="579" 
d="M565 588q-15 0 -22.5 -8.5t-15.5 -31.5l-158 -469q-4 -11 -8 -24.5t-4 -21.5q0 -13 17 -13v-20h-170v20q17 0 17 17q0 11 -6 27t-11 30l-153 457q-8 24 -15.5 30.5t-21.5 6.5v20h186v-20q-12 0 -18.5 -6t-6.5 -14q0 -3 2 -13t5 -21l111 -387h2l116 397q2 5 3 12.5t1 10.5
q0 11 -6.5 16t-24.5 5v20h181v-20z" />
    <glyph glyph-name="w" unicode="w" horiz-adv-x="712" 
d="M698 588q-17 0 -24 -7t-11 -26l-98 -474q-2 -11 -5 -22.5t-3 -23.5q0 -5 4.5 -10t15.5 -5v-20h-160v20q19 0 19 15q0 5 -2.5 13.5t-5.5 18t-6.5 18t-5.5 14.5l-55 168h-2l-63 -188l-8 -22t-4 -22q0 -5 4 -10t15 -5v-20h-168v20q20 0 20 16q0 5 -1 12.5t-3 16.5t-3.5 18
t-3.5 16l-96 456q-5 22 -12 27.5t-22 5.5v20h182v-20q-14 0 -19.5 -4t-5.5 -10v-7t1 -9l65 -373h2l100 300h45l98 -302h2l63 366l2 12t1 10q0 9 -5.5 13t-20.5 4v20h174v-20z" />
    <glyph glyph-name="x" unicode="x" horiz-adv-x="573" 
d="M354 0v20q25 0 25 10q0 7 -9 22l-93 156h-1l-91 -158q-2 -5 -5 -10t-3 -10t4.5 -7.5t18.5 -2.5v-20h-180v20q18 0 27.5 6t23.5 29l147 246l-147 249q-7 12 -12 19t-10 11.5t-12 6t-17 1.5v20h195v-20q-11 0 -15.5 -3t-4.5 -6q0 -8 7 -21l94 -166h1l90 166l5.5 11t2.5 9
q0 10 -22 10v20h180v-20q-20 0 -29.5 -7.5t-23.5 -30.5l-146 -249l147 -245q14 -23 23 -29.5t29 -6.5v-20h-199z" />
    <glyph glyph-name="y" unicode="y" horiz-adv-x="550" 
d="M536 588q-15 0 -22 -5.5t-20 -29.5l-161 -302v-195q0 -22 7 -29t27 -7v-20h-185v20q20 0 27 7t7 29v195l-159 300q-13 24 -21 30.5t-22 6.5v20h184v-20q-13 0 -16.5 -3t-3.5 -7q0 -6 1.5 -10.5t3.5 -9.5l97 -210h2l96 207q2 5 4.5 11.5t2.5 11.5q0 3 -3 6.5t-17 3.5v20
h171v-20z" />
    <glyph glyph-name="z" unicode="z" horiz-adv-x="523" 
d="M464 -9q-9 4 -20 6.5t-23 2.5h-374l-22 39l295 471h-209q-25 0 -38 -8.5t-20 -28.5l-21 6l32 135q7 -2 17 -4t22 -2h361l24 -41l-294 -469h228q22 0 34 12t20 35l22 -7z" />
    <glyph glyph-name="braceleft" unicode="{" horiz-adv-x="362" 
d="M330 -64q-59 0 -98 8.5t-62 28t-32.5 50.5t-9.5 76v171q0 34 -21.5 54.5t-56.5 27.5v42q35 6 56.5 24t21.5 58v170q0 46 10 77.5t33.5 50t62.5 26.5t96 8v-46q-48 0 -66 -22t-18 -64v-186q0 -18 -4.5 -37t-16 -35t-31.5 -28t-50 -16v-2q30 -5 50 -16.5t31.5 -27t16 -34.5
t4.5 -37v-189q0 -43 19.5 -66t64.5 -23v-43z" />
    <glyph glyph-name="bar" unicode="|" horiz-adv-x="318" 
d="M100 -64v872h118v-872h-118z" />
    <glyph glyph-name="braceright" unicode="}" horiz-adv-x="362" 
d="M312 352q-35 -7 -56.5 -27.5t-21.5 -54.5v-171q0 -45 -9.5 -76t-32.5 -50.5t-62 -28t-98 -8.5v43q45 0 64.5 23t19.5 66v189q0 18 4.5 37t16 34.5t31.5 27t50 16.5v2q-30 4 -50 16t-31.5 28t-16 35t-4.5 37v186q0 42 -18 64t-66 22v46q57 0 96 -8t62.5 -26.5t33.5 -50
t10 -77.5v-170q0 -40 21.5 -58t56.5 -24v-42z" />
    <glyph glyph-name="asciitilde" unicode="~" horiz-adv-x="500" 
d="M441 482q0 -24 -6 -49.5t-19.5 -46.5t-34.5 -34t-51 -13q-36 0 -68.5 12.5t-64.5 26.5q-10 5 -18 6.5t-14 1.5q-14 0 -24.5 -11t-10.5 -34h-70q0 30 8.5 56t23.5 44.5t35.5 29.5t44.5 11q37 0 69.5 -13t64.5 -27q8 -4 15.5 -4.5t13.5 -0.5q14 0 25 11.5t11 33.5h70z" />
    <glyph glyph-name="uni00A0" unicode="&#xa0;" horiz-adv-x="140" 
 />
    <glyph glyph-name="exclamdown" unicode="&#xa1;" horiz-adv-x="297" 
d="M40 0v20q23 0 27 32l54 446h56l53 -446q4 -32 27 -32v-20h-217zM225 697q0 -32 -23 -52.5t-54 -20.5t-52.5 20.5t-21.5 52.5q0 35 21.5 53t52.5 18t54 -18t23 -53z" />
    <glyph glyph-name="cent" unicode="&#xa2;" horiz-adv-x="577" 
d="M480 108l-12 2q-5 1 -11.5 2t-11.5 1q-11 0 -29.5 -3.5t-38.5 -5.5v-155h-74v155q-51 6 -94 27t-73.5 56.5t-48 85t-17.5 112.5t17.5 113t48 86.5t73.5 58.5t94 28v140h74v-140q19 -2 37 -5t28 -3q9 0 18 3t17 6l28 -158l-28 -9q-14 31 -41.5 48t-88.5 17
q-74 0 -115.5 -47t-41.5 -136q0 -92 45 -137t116 -45q58 0 86 15.5t42 49.5l28 -6z" />
    <glyph glyph-name="sterling" unicode="&#xa3;" horiz-adv-x="665" 
d="M553 -5q-45 8 -103 11t-129 3q-72 0 -136.5 -4t-124.5 -9v96l11 1q18 1 39 17t38 41t28.5 56.5t11.5 63.5q0 12 -1.5 31t-5.5 38h-104v88h91q-12 30 -23.5 68t-11.5 79q0 49 17 86.5t48 62.5t73.5 38t92.5 13q47 0 84.5 -9t54.5 -9q16 0 31 3l42 -178l-23 -7
q-10 18 -21 34t-27.5 28.5t-40 19.5t-56.5 7q-132 0 -132 -111q0 -37 9.5 -67t20.5 -58h162v-88h-146q1 -8 1 -15.5v-15.5q0 -26 -8.5 -52t-23 -50.5t-32 -46t-35.5 -37.5v-3q52 10 96 13.5t79 3.5q32 0 65 -4.5t51 -4.5q23 0 39 10.5t30 42.5l21 -8z" />
    <glyph glyph-name="currency" unicode="&#xa4;" horiz-adv-x="690" 
d="M620 0q-6 0 -12 1q-5 1 -12 1.5t-15 0.5q-11 0 -26.5 -2t-34 -5t-37.5 -5t-36 -2q-70 0 -128 20t-102.5 58t-73 92.5t-40.5 124.5h-83l18 62h58q-1 8 -1 16.5v17.5v21t1 21h-76l18 62h67q13 67 42.5 120.5t73.5 91t101 58t126 20.5q15 0 33.5 -2t36.5 -4.5t33.5 -4.5
t25.5 -2q15 0 27 3q7 1 14 3l33 -170l-23 -4q-18 41 -60.5 54.5t-115.5 13.5q-81 0 -133.5 -47t-72.5 -130h260l-20 -62h-249q-1 -10 -1.5 -19.5t-0.5 -20.5q0 -9 0.5 -18t1.5 -18h269l-20 -62h-241q20 -91 76.5 -137t135.5 -46q75 0 115.5 24t58.5 69l23 -4z" />
    <glyph glyph-name="yen" unicode="&#xa5;" horiz-adv-x="633" 
d="M619 741q-11 0 -18.5 -1.5t-13.5 -6t-11.5 -14t-12.5 -24.5l-164 -345h152v-63h-168v-84h168v-63h-168v-72q0 -29 8.5 -38.5t32.5 -9.5v-20h-217v20q23 0 32 9.5t9 38.5v72h-169v63h169v84h-169v63h153l-162 343q-8 15 -13 24.5t-11 15t-13 7t-19 1.5v20h218v-20
q-25 0 -25 -13q0 -8 2 -13l6 -15l108 -271h2l107 267q4 10 7.5 18.5t3.5 14.5t-5.5 9t-20.5 3v20h202v-20z" />
    <glyph glyph-name="brokenbar" unicode="&#xa6;" horiz-adv-x="318" 
d="M100 -64v362h118v-362h-118zM100 447v361h118v-361h-118z" />
    <glyph glyph-name="section" unicode="&#xa7;" horiz-adv-x="536" 
d="M334 360q0 17 -6.5 27t-20.5 18l-63 36q-19 -10 -30.5 -26.5t-11.5 -30.5q0 -20 10 -30t21 -16l60 -34q18 9 29.5 24t11.5 32zM448 371q0 -27 -18 -57.5t-62 -57.5q21 -16 36 -30t24.5 -29t14 -32.5t4.5 -41.5q0 -31 -14 -57t-40.5 -45t-65 -30t-86.5 -11
q-30 0 -59.5 5.5t-50.5 5.5q-4 0 -8 -0.5t-9 -1.5l-22 146l15 4q8 -13 17.5 -24t22.5 -19.5t31.5 -13t44.5 -4.5q44 0 74 9.5t30 40.5q0 23 -12.5 36t-49.5 33l-90 48q-42 23 -64 50.5t-22 75.5q0 33 19.5 61.5t60.5 57.5q-39 25 -59.5 53.5t-20.5 75.5q0 28 13 54t38 46.5
t62 32.5t86 12q33 0 64.5 -5.5t45.5 -5.5q6 0 12.5 1t12.5 2l22 -147l-16 -4q-16 28 -41 44.5t-72 16.5q-56 0 -81 -11t-25 -40q0 -25 15.5 -38t50.5 -32l89 -48q38 -20 60.5 -48t22.5 -78z" />
    <glyph glyph-name="dieresis" unicode="&#xa8;" horiz-adv-x="590" 
d="M249 733q0 -21 -17.5 -35t-42.5 -14t-42.5 14t-17.5 35t17.5 34.5t42.5 13.5q24 0 42 -13.5t18 -34.5zM462 733q0 -21 -17.5 -35t-42.5 -14t-42.5 14t-17.5 35t18 34.5t42 13.5q25 0 42.5 -13.5t17.5 -34.5z" />
    <glyph glyph-name="copyright" unicode="&#xa9;" horiz-adv-x="841" 
d="M564 138q-5 0 -9 1q-4 0 -9 0.5t-10 0.5q-7 0 -18 -1.5t-23 -3t-25 -3t-24 -1.5q-55 0 -98.5 17t-74 49.5t-47 78.5t-16.5 105q0 57 16.5 103t47 78.5t74.5 50.5t99 18q21 0 47 -3.5t39 -3.5q9 0 17.5 1.5t10.5 2.5l24 -119l-17 -3q-13 30 -43.5 40t-75.5 10
q-68 0 -105.5 -46.5t-37.5 -127.5q0 -88 41 -132.5t106 -44.5q50 0 78 15.5t38 44.5l17 -3zM784 380q0 75 -28.5 141t-78 115.5t-115.5 78t-141 28.5t-141 -28.5t-115.5 -78t-78.5 -115.5t-29 -141t29 -141t78.5 -115.5t115.5 -78.5t141 -29t141 29t115.5 78.5t78 115.5
t28.5 141zM813 380q0 -82 -30.5 -153.5t-83.5 -124.5t-124.5 -83.5t-153.5 -30.5t-153.5 30.5t-125 83.5t-84 124.5t-30.5 153.5t30.5 153.5t84 124.5t125 83.5t153.5 30.5t153.5 -30.5t124.5 -83.5t83.5 -124.5t30.5 -153.5z" />
    <glyph glyph-name="ordfeminine" unicode="&#xaa;" horiz-adv-x="334" 
d="M189 604q-32 -7 -52 -18t-20 -31q0 -19 10 -27t26 -8t26 9t10 24v51zM37 343v49h260v-49h-260zM207 471q-1 3 -3.5 8t-3.5 15h-2q-13 -11 -33 -20t-44 -9q-37 0 -59 19.5t-22 60.5q0 25 11 42t30.5 28.5t47 19.5t60.5 14v16q0 20 -12.5 32.5t-49.5 12.5q-22 0 -34.5 -10
t-19.5 -22l-11 4l14 83q10 -2 19 -2q6 0 11.5 1t13 2.5t18 2.5t26.5 1q60 0 85 -29t25 -88v-140q0 -25 7 -42h-74z" />
    <glyph glyph-name="guillemotleft" unicode="&#xab;" horiz-adv-x="434" 
d="M122 140l-92 181v5l92 176h109l-95 -180l95 -182h-109zM295 140l-92 181v5l92 176h109l-95 -180l95 -182h-109z" />
    <glyph glyph-name="logicalnot" unicode="&#xac;" horiz-adv-x="565" 
d="M442 169v183h-404v83h489v-266h-85z" />
    <glyph glyph-name="uni00AD" unicode="&#xad;" horiz-adv-x="335" 
d="M30 274v104h275v-104h-275z" />
    <glyph glyph-name="registered" unicode="&#xae;" horiz-adv-x="536" 
d="M327 590q0 21 -14 32.5t-46 11.5q-8 0 -15 0.5t-15 -0.5v-85q5 0 15 -0.5t18 -0.5q28 0 42.5 12t14.5 30zM312 406q-12 23 -22 50t-15 50h-19q-5 0 -9.5 0.5t-9.5 0.5v-77q0 -10 2.5 -12.5t11.5 -2.5v-9h-81v9q9 0 12 2.5t3 12.5v222q0 8 -3 10.5t-12 2.5v9
q19 1 47.5 1.5t44.5 0.5q56 0 87 -19t31 -67q0 -30 -18 -47.5t-38 -25.5q3 -11 8 -24.5t11 -26.5t11.5 -25t10.5 -19q3 -7 18 -7v-9h-71zM486 533q0 46 -17.5 86.5t-47.5 70.5t-69.5 47.5t-84.5 17.5t-83.5 -17.5t-67.5 -47.5t-45.5 -70.5t-16.5 -86.5q0 -50 15.5 -90.5
t43 -70t66 -45.5t83.5 -16q48 0 89 18t71 49t47 71t17 84zM508 533q0 -51 -18 -95.5t-50 -77.5t-77.5 -52t-99.5 -19q-53 0 -96.5 17.5t-74 49.5t-47.5 77t-17 100q0 54 19 99t52 76.5t76.5 49t91.5 17.5q49 0 93 -17.5t77 -49t52 -76.5t19 -99z" />
    <glyph glyph-name="macron" unicode="&#xaf;" horiz-adv-x="590" 
d="M171 692v61h249v-61h-249z" />
    <glyph glyph-name="degree" unicode="&#xb0;" horiz-adv-x="293" 
d="M209 659q0 26 -18 43.5t-44 17.5q-27 0 -44.5 -17.5t-17.5 -43.5t17.5 -44.5t44.5 -18.5q26 0 44 18.5t18 44.5zM263 658q0 -23 -9 -43.5t-25 -36t-37 -24.5t-45 -9t-45.5 9t-37 24.5t-25 36t-9.5 43.5t9.5 44t25 36.5t37 24.5t45.5 9t45 -9t37 -24.5t25 -36.5t9 -44z
" />
    <glyph glyph-name="plusminus" unicode="&#xb1;" horiz-adv-x="549" 
d="M41 1v100h466v-100h-466zM328 335v-188h-108v188h-179v101h179v187h108v-187h179v-101h-179z" />
    <glyph glyph-name="uni00B2" unicode="&#xb2;" horiz-adv-x="420" 
d="M353 372q-18 5 -38 5h-282q1 34 14.5 64.5t35 57t49.5 47t58 34.5q43 19 57.5 34.5t14.5 32.5q0 20 -20 29.5t-67 9.5q-29 0 -47 -3t-30 -9t-20 -14t-15 -17l-13 5l28 105q8 -1 13.5 -1h10.5q17 0 43.5 7.5t62.5 7.5q82 0 121.5 -33t39.5 -84q0 -76 -94 -117
q-40 -17 -64 -33.5t-38 -43.5h150q15 0 26 8.5t19 22.5l12 -3z" />
    <glyph glyph-name="uni00B3" unicode="&#xb3;" horiz-adv-x="420" 
d="M372 488q0 -23 -11 -44t-33 -36.5t-55 -24.5t-76 -9q-26 0 -43 1.5t-28.5 3.5t-19.5 3.5t-15 1.5q-9 0 -19 -3l-29 114l14 3q9 -15 18 -24t22 -14.5t31 -7.5t45 -2q51 0 72 11.5t21 36.5q0 26 -20.5 35.5t-57.5 9.5h-14v68h18q21 0 40 11t19 28q0 23 -19 32.5t-56 9.5
q-27 0 -44.5 -2t-29.5 -6t-20.5 -11t-15.5 -17l-12 4l27 102q6 -2 11.5 -2h12.5q12 0 32.5 3t55.5 3q75 0 119 -26t44 -76q0 -53 -73 -80q43 -12 66 -35.5t23 -60.5z" />
    <glyph glyph-name="acute" unicode="&#xb4;" horiz-adv-x="590" 
d="M319 681h-82l73 87h123z" />
    <glyph glyph-name="mu" unicode="&#xb5;" horiz-adv-x="509" 
d="M449 428q-29 -47 -68 -77t-99 -30q-29 0 -57 10.5t-52 23.5t-43 23.5t-32 10.5q-19 0 -30 -8l-8 12q28 32 59 50.5t73 18.5q19 0 43 -6.5t50 -15t52.5 -15t50.5 -6.5q18 0 30 5t21 14z" />
    <glyph glyph-name="mu" unicode="&#x3bc;" horiz-adv-x="509" 
d="M449 428q-29 -47 -68 -77t-99 -30q-29 0 -57 10.5t-52 23.5t-43 23.5t-32 10.5q-19 0 -30 -8l-8 12q28 32 59 50.5t73 18.5q19 0 43 -6.5t50 -15t52.5 -15t50.5 -6.5q18 0 30 5t21 14z" />
    <glyph glyph-name="paragraph" unicode="&#xb6;" horiz-adv-x="664" 
d="M475 688h-67v-614h67v614zM380 0q-165 0 -252.5 98.5t-87.5 284.5q0 184 87 281t253 97h254v-72h-75v-616h75v-73h-254z" />
    <glyph glyph-name="periodcentered" unicode="&#xb7;" horiz-adv-x="213" 
d="M183 372q0 -35 -22.5 -53t-53.5 -18t-54 18t-23 53q0 32 23 52.5t54 20.5t53.5 -20.5t22.5 -52.5z" />
    <glyph glyph-name="cedilla" unicode="&#xb8;" horiz-adv-x="590" 
d="M450 -94q0 -32 -29 -53t-100 -21q-28 0 -46 2t-42 7l16 39q12 -3 23 -4.5t28 -1.5q36 0 49.5 7.5t13.5 18.5t-10.5 18.5t-33.5 7.5q-17 0 -26.5 -1t-23.5 -4l-21 21l30 65h53l-19 -40v-2q7 1 21 2t25 1q17 0 33.5 -4t29.5 -12t21 -19.5t8 -26.5z" />
    <glyph glyph-name="uni00B9" unicode="&#xb9;" horiz-adv-x="420" 
d="M157 386v12q11 1 17 8.5t6 25.5v225q-17 -5 -38 -8.5t-40 -4.5v55q11 1 26.5 4.5t31.5 11t29.5 18.5t20.5 28h70q-4 -16 -4 -30v-299q0 -18 6.5 -25.5t17.5 -8.5v-12h-143z" />
    <glyph glyph-name="ordmasculine" unicode="&#xba;" horiz-adv-x="334" 
d="M223 619q0 47 -16 67t-40 20q-23 0 -40 -20t-17 -67q0 -51 16.5 -71.5t40.5 -20.5q23 0 39.5 20.5t16.5 71.5zM37 339v49h259v-49h-259zM304 620q0 -79 -39 -118.5t-98 -39.5t-98 38.5t-39 118.5q0 36 10.5 64.5t29 47.5t43.5 29t54 10q25 0 49.5 -10t44 -29t31.5 -47
t12 -64z" />
    <glyph glyph-name="guillemotright" unicode="&#xbb;" horiz-adv-x="434" 
d="M139 140h-109l95 182l-95 180h109l92 -176v-5zM312 140h-109l95 182l-95 180h109l92 -176v-5z" />
    <glyph glyph-name="onequarter" unicode="&#xbc;" horiz-adv-x="840" 
d="M614 315l-93 -168h93v168zM97 386v12q11 1 17 8.5t6 25.5v225q-17 -5 -38 -8.5t-40 -4.5v55q11 1 26.5 4.5t31.5 11t29.5 18.5t20.5 28h70q-4 -16 -4 -30v-299q0 -18 6.5 -25.5t17.5 -8.5v-12h-143zM231 0h-118l433 761h120zM772 62q-9 3 -18 4t-16 1h-22v-23
q0 -32 27 -35v-9h-156v9q15 2 21 10.5t6 24.5v23h-212v60l141 228q5 7 8 12t6 13h174v-11q-15 -2 -15 -18v-204h27q17 0 25 8t17 23l12 -4z" />
    <glyph glyph-name="onehalf" unicode="&#xbd;" horiz-adv-x="840" 
d="M85 386v12q11 1 17 8.5t6 25.5v225q-17 -5 -38 -8.5t-40 -4.5v55q11 1 26.5 4.5t31.5 11t29.5 18.5t20.5 28h70q-4 -16 -4 -30v-299q0 -18 6.5 -25.5t17.5 -8.5v-12h-143zM213 0h-118l433 761h120zM782 -5q-18 5 -38 5h-282q1 34 14.5 64.5t35 57t49.5 47t58 34.5
q43 19 57.5 34.5t14.5 32.5q0 20 -20 29.5t-67 9.5q-29 0 -47 -3t-30 -9t-20 -14t-15 -17l-13 5l28 105q8 -1 13.5 -1h10.5q17 0 43.5 7.5t62.5 7.5q82 0 121.5 -33t39.5 -84q0 -76 -94 -117q-40 -17 -64 -33.5t-38 -43.5h150q15 0 26 8.5t19 22.5l12 -3z" />
    <glyph glyph-name="threequarters" unicode="&#xbe;" horiz-adv-x="840" 
d="M630 315l-93 -168h93v168zM361 488q0 -23 -11 -44t-33 -36.5t-55 -24.5t-76 -9q-26 0 -43 1.5t-28.5 3.5t-19.5 3.5t-15 1.5q-9 0 -19 -3l-29 114l14 3q9 -15 18 -24t22 -14.5t31 -7.5t45 -2q51 0 72 11.5t21 36.5q0 26 -20.5 35.5t-57.5 9.5h-14v68h18q21 0 40 11t19 28
q0 23 -19 32.5t-56 9.5q-27 0 -44.5 -2t-29.5 -6t-20.5 -11t-15.5 -17l-12 4l27 102q6 -2 11.5 -2h12.5q12 0 32.5 3t55.5 3q75 0 119 -26t44 -76q0 -53 -73 -80q43 -12 66 -35.5t23 -60.5zM265 0h-118l433 761h120zM788 62q-9 3 -18 4t-16 1h-22v-23q0 -32 27 -35v-9h-156
v9q15 2 21 10.5t6 24.5v23h-212v60l141 228q5 7 8 12t6 13h174v-11q-15 -2 -15 -18v-204h27q17 0 25 8t17 23l12 -4z" />
    <glyph glyph-name="questiondown" unicode="&#xbf;" horiz-adv-x="490" 
d="M413 6q-6 1 -14 2t-15 1q-9 0 -23.5 -3t-34 -7t-42.5 -7t-48 -3q-93 0 -147 43t-54 129q0 37 10 66.5t28 55t43.5 48t56.5 43.5q41 29 57 50.5t16 44.5q0 10 -3 19t-7 14v3h89q1 -5 1.5 -10t0.5 -10q0 -32 -5 -54t-16 -41t-29 -38.5t-44 -45.5q-65 -64 -65 -115
q0 -37 24 -63t87 -26q59 0 94.5 26.5t58.5 69.5l23 -8zM349 705q0 -32 -23 -52.5t-54 -20.5t-52.5 20.5t-21.5 52.5q0 35 21.5 53t52.5 18t54 -18t23 -53z" />
    <glyph glyph-name="Agrave" unicode="&#xc0;" horiz-adv-x="680" 
d="M332 583h-2l-89 -333q19 -5 46 -9t49 -4q25 0 50.5 4t41.5 9zM454 0v20q16 0 23 6.5t7 23.5q0 11 -5 26l-17 57q-22 -6 -55 -10.5t-71 -4.5t-69.5 4.5t-57.5 10.5l-19 -60q-2 -7 -3 -14t-1 -12q0 -15 9 -21t27 -6v-20h-208v20q17 0 26 10t19 42l190 608q3 9 6.5 21.5
t3.5 18.5q0 9 -4 15t-16 6v20h198v-20q-15 0 -18 -10t-3 -14q0 -6 4 -19t7 -23l194 -599q11 -32 19.5 -44t25.5 -12v-20h-212zM333 801l-114 87h123l73 -87h-82z" />
    <glyph glyph-name="Aacute" unicode="&#xc1;" horiz-adv-x="680" 
d="M332 583h-2l-89 -333q19 -5 46 -9t49 -4q25 0 50.5 4t41.5 9zM454 0v20q16 0 23 6.5t7 23.5q0 11 -5 26l-17 57q-22 -6 -55 -10.5t-71 -4.5t-69.5 4.5t-57.5 10.5l-19 -60q-2 -7 -3 -14t-1 -12q0 -15 9 -21t27 -6v-20h-208v20q17 0 26 10t19 42l190 608q3 9 6.5 21.5
t3.5 18.5q0 9 -4 15t-16 6v20h198v-20q-15 0 -18 -10t-3 -14q0 -6 4 -19t7 -23l194 -599q11 -32 19.5 -44t25.5 -12v-20h-212zM324 801h-82l73 87h123z" />
    <glyph glyph-name="Acircumflex" unicode="&#xc2;" horiz-adv-x="680" 
d="M332 583h-2l-89 -333q19 -5 46 -9t49 -4q25 0 50.5 4t41.5 9zM454 0v20q16 0 23 6.5t7 23.5q0 11 -5 26l-17 57q-22 -6 -55 -10.5t-71 -4.5t-69.5 4.5t-57.5 10.5l-19 -60q-2 -7 -3 -14t-1 -12q0 -15 9 -21t27 -6v-20h-208v20q17 0 26 10t19 42l190 608q3 9 6.5 21.5
t3.5 18.5q0 9 -4 15t-16 6v20h198v-20q-15 0 -18 -10t-3 -14q0 -6 4 -19t7 -23l194 -599q11 -32 19.5 -44t25.5 -12v-20h-212zM383 801l-45 48l-44 -48h-91l88 92h94l91 -92h-93z" />
    <glyph glyph-name="Atilde" unicode="&#xc3;" horiz-adv-x="680" 
d="M332 583h-2l-89 -333q19 -5 46 -9t49 -4q25 0 50.5 4t41.5 9zM454 0v20q16 0 23 6.5t7 23.5q0 11 -5 26l-17 57q-22 -6 -55 -10.5t-71 -4.5t-69.5 4.5t-57.5 10.5l-19 -60q-2 -7 -3 -14t-1 -12q0 -15 9 -21t27 -6v-20h-208v20q17 0 26 10t19 42l190 608q3 9 6.5 21.5
t3.5 18.5q0 9 -4 15t-16 6v20h198v-20q-15 0 -18 -10t-3 -14q0 -6 4 -19t7 -23l194 -599q11 -32 19.5 -44t25.5 -12v-20h-212zM478 897q-2 -19 -8 -36t-16.5 -30.5t-25.5 -21.5t-35 -8q-17 0 -32 4.5t-29 9.5q-11 4 -23.5 8.5t-23.5 4.5q-14 0 -20 -6.5t-10 -20.5h-51
q2 41 25 68.5t62 27.5q18 0 32.5 -4.5t26.5 -9.5q9 -5 20 -9t22 -4q27 0 32 27h54z" />
    <glyph glyph-name="Adieresis" unicode="&#xc4;" horiz-adv-x="680" 
d="M332 583h-2l-89 -333q19 -5 46 -9t49 -4q25 0 50.5 4t41.5 9zM454 0v20q16 0 23 6.5t7 23.5q0 11 -5 26l-17 57q-22 -6 -55 -10.5t-71 -4.5t-69.5 4.5t-57.5 10.5l-19 -60q-2 -7 -3 -14t-1 -12q0 -15 9 -21t27 -6v-20h-208v20q17 0 26 10t19 42l190 608q3 9 6.5 21.5
t3.5 18.5q0 9 -4 15t-16 6v20h198v-20q-15 0 -18 -10t-3 -14q0 -6 4 -19t7 -23l194 -599q11 -32 19.5 -44t25.5 -12v-20h-212zM293 850q0 -21 -17.5 -35t-42.5 -14t-42.5 14t-17.5 35t17.5 34.5t42.5 13.5q24 0 42 -13.5t18 -34.5zM506 850q0 -21 -17.5 -35t-42.5 -14
t-42.5 14t-17.5 35t18 34.5t42 13.5q25 0 42.5 -13.5t17.5 -34.5z" />
    <glyph glyph-name="Aring" unicode="&#xc5;" horiz-adv-x="680" 
d="M332 583h-2l-89 -333q19 -5 46 -9t49 -4q25 0 50.5 4t41.5 9zM374 846q0 11 -10.5 19.5t-25.5 8.5t-24.5 -8.5t-9.5 -19.5t9.5 -19t24.5 -8t25.5 8t10.5 19zM454 0v20q16 0 23 6.5t7 23.5q0 11 -5 26l-17 57q-22 -6 -55 -10.5t-71 -4.5t-69.5 4.5t-57.5 10.5l-19 -60
q-2 -7 -3 -14t-1 -12q0 -15 9 -21t27 -6v-20h-208v20q17 0 26 10t19 42l190 608q3 9 6.5 21.5t3.5 18.5q0 9 -4 15t-16 6v20h198v-20q-15 0 -18 -10t-3 -14q0 -6 4 -19t7 -23l194 -599q11 -32 19.5 -44t25.5 -12v-20h-212zM419 847q0 -28 -24 -46t-56 -18t-57 18t-25 46
t25 46t57 18t56 -18t24 -46z" />
    <glyph glyph-name="AE" unicode="&#xc6;" horiz-adv-x="994" 
d="M466 660h-3l-181 -410q19 -5 46 -9t49 -4q25 0 49 4t40 9v410zM927 -8q-10 4 -25.5 6t-31.5 2h-445v20q25 0 33 9.5t8 38.5v65q-18 -7 -43 -11t-59 -4q-32 0 -69 4.5t-63 10.5l-27 -60q-6 -14 -6 -26q0 -15 11 -21t27 -6v-20h-221v20q17 0 28.5 11t25.5 41l276 608
q4 8 7 21t3 19q0 9 -5 15t-17 6v20h538q15 0 28.5 2.5t21.5 4.5l37 -160l-23 -6q-8 26 -26 36t-43 10h-266v-171h253q23 0 32.5 7.5t11.5 27.5h21v-185h-21q-2 22 -10.5 29.5t-33.5 7.5h-253v-250h276q30 0 43 12.5t21 32.5l23 -6z" />
    <glyph glyph-name="Ccedilla" unicode="&#xc7;" horiz-adv-x="629" 
d="M560 0l-12 2q-5 1 -12 2t-15 1q-10 0 -24.5 -2t-31 -5t-34.5 -5.5t-34 -3.5l-11 -22v-2q7 1 21 2t25 1q17 0 33.5 -4t29.5 -12t21 -19.5t8 -26.5q0 -32 -29 -53t-100 -21q-28 0 -46 2t-42 7l16 39q12 -3 23 -4.5t28 -1.5q36 0 49.5 7.5t13.5 18.5t-10.5 18.5t-33.5 7.5
q-17 0 -26.5 -1t-23.5 -4l-21 21l23 49q-72 7 -129.5 36.5t-97.5 79.5t-61.5 118.5t-21.5 154.5q0 89 24.5 161.5t70.5 124.5t111.5 80t146.5 28q15 0 33.5 -1.5t36.5 -4t33.5 -4t25.5 -1.5q15 0 27 3q7 1 14 3l33 -184l-22 -6q-16 36 -58.5 57t-118.5 21q-51 0 -91.5 -19.5
t-68.5 -55t-42.5 -86.5t-14.5 -114q0 -69 16.5 -120.5t46 -86.5t70 -52.5t89.5 -17.5q75 0 116.5 25t59.5 70l21 -4z" />
    <glyph glyph-name="Egrave" unicode="&#xc8;" horiz-adv-x="609" 
d="M542 -8q-11 5 -26 6.5t-31 1.5h-445v20q25 0 33 9.5t8 38.5v625q0 29 -8 38.5t-33 9.5v20h447q12 0 27 2t23 5l37 -160l-23 -6q-8 18 -21 32t-47 14h-267v-171h253q23 0 32.5 7.5t11.5 27.5h21v-185h-21q-2 22 -10.5 29.5t-33.5 7.5h-253v-250h277q30 0 42.5 12.5
t20.5 32.5l23 -6zM281 801l-114 87h123l73 -87h-82z" />
    <glyph glyph-name="Eacute" unicode="&#xc9;" horiz-adv-x="609" 
d="M542 -8q-11 5 -26 6.5t-31 1.5h-445v20q25 0 33 9.5t8 38.5v625q0 29 -8 38.5t-33 9.5v20h447q12 0 27 2t23 5l37 -160l-23 -6q-8 18 -21 32t-47 14h-267v-171h253q23 0 32.5 7.5t11.5 27.5h21v-185h-21q-2 22 -10.5 29.5t-33.5 7.5h-253v-250h277q30 0 42.5 12.5
t20.5 32.5l23 -6zM347 801h-82l73 87h123z" />
    <glyph glyph-name="Ecircumflex" unicode="&#xca;" horiz-adv-x="609" 
d="M542 -8q-11 5 -26 6.5t-31 1.5h-445v20q25 0 33 9.5t8 38.5v625q0 29 -8 38.5t-33 9.5v20h447q12 0 27 2t23 5l37 -160l-23 -6q-8 18 -21 32t-47 14h-267v-171h253q23 0 32.5 7.5t11.5 27.5h21v-185h-21q-2 22 -10.5 29.5t-33.5 7.5h-253v-250h277q30 0 42.5 12.5
t20.5 32.5l23 -6zM355 801l-45 48l-44 -48h-91l88 92h94l91 -92h-93z" />
    <glyph glyph-name="Edieresis" unicode="&#xcb;" horiz-adv-x="609" 
d="M542 -8q-11 5 -26 6.5t-31 1.5h-445v20q25 0 33 9.5t8 38.5v625q0 29 -8 38.5t-33 9.5v20h447q12 0 27 2t23 5l37 -160l-23 -6q-8 18 -21 32t-47 14h-267v-171h253q23 0 32.5 7.5t11.5 27.5h21v-185h-21q-2 22 -10.5 29.5t-33.5 7.5h-253v-250h277q30 0 42.5 12.5
t20.5 32.5l23 -6zM258 850q0 -21 -17.5 -35t-42.5 -14t-42.5 14t-17.5 35t17.5 34.5t42.5 13.5q24 0 42 -13.5t18 -34.5zM471 850q0 -21 -17.5 -35t-42.5 -14t-42.5 14t-17.5 35t18 34.5t42 13.5q25 0 42.5 -13.5t17.5 -34.5z" />
    <glyph glyph-name="Igrave" unicode="&#xcc;" horiz-adv-x="297" 
d="M40 0v20q25 0 33 9.5t8 38.5v625q0 29 -8 38.5t-33 9.5v20h217v-20q-24 0 -32.5 -9.5t-8.5 -38.5v-625q0 -29 8.5 -38.5t32.5 -9.5v-20h-217zM162 801l-114 87h123l73 -87h-82z" />
    <glyph glyph-name="Iacute" unicode="&#xcd;" horiz-adv-x="297" 
d="M40 0v20q25 0 33 9.5t8 38.5v625q0 29 -8 38.5t-33 9.5v20h217v-20q-24 0 -32.5 -9.5t-8.5 -38.5v-625q0 -29 8.5 -38.5t32.5 -9.5v-20h-217zM135 801h-82l73 87h123z" />
    <glyph glyph-name="Icircumflex" unicode="&#xce;" horiz-adv-x="297" 
d="M40 0v20q25 0 33 9.5t8 38.5v625q0 29 -8 38.5t-33 9.5v20h217v-20q-24 0 -32.5 -9.5t-8.5 -38.5v-625q0 -29 8.5 -38.5t32.5 -9.5v-20h-217zM192 801l-45 48l-44 -48h-91l88 92h94l91 -92h-93z" />
    <glyph glyph-name="Idieresis" unicode="&#xcf;" horiz-adv-x="297" 
d="M40 0v20q25 0 33 9.5t8 38.5v625q0 29 -8 38.5t-33 9.5v20h217v-20q-24 0 -32.5 -9.5t-8.5 -38.5v-625q0 -29 8.5 -38.5t32.5 -9.5v-20h-217zM120 850q0 -21 -17.5 -35t-42.5 -14t-42.5 14t-17.5 35t17.5 34.5t42.5 13.5q24 0 42 -13.5t18 -34.5zM297 850
q0 -21 -17.5 -35t-42.5 -14t-42.5 14t-17.5 35t18 34.5t42 13.5q25 0 42.5 -13.5t17.5 -34.5z" />
    <glyph glyph-name="Eth" unicode="&#xd0;" horiz-adv-x="705" 
d="M521 390q0 60 -18 109t-49.5 83.5t-74.5 53t-92 18.5q-13 0 -34 -1t-37 -1v-233h188v-76h-188v-236q13 -1 35 -1.5t36 -0.5q60 0 104.5 22.5t73 61t42.5 90.5t14 111zM665 389q0 -79 -19.5 -151t-67 -126.5t-126.5 -86.5t-198 -32q-24 0 -52.5 0.5t-57.5 1.5t-56 2t-48 3
v20q25 1 33 10t8 32v281h-75v76h75v278q0 26 -9 35t-32 9v20q47 2 106.5 3.5t113.5 1.5q103 0 179.5 -26.5t126.5 -75.5t74.5 -119t24.5 -156z" />
    <glyph glyph-name="Ntilde" unicode="&#xd1;" horiz-adv-x="693" 
d="M488 0q1 11 -2 25t-11 28l-270 472h-2v-457q0 -30 8.5 -39t32.5 -9v-20h-204v20q25 0 33 9t8 39v631q0 23 -9 32.5t-32 9.5v20h192q1 -9 5.5 -25t14.5 -33l235 -413h2v410q0 23 -9 32t-32 9v20h204v-20q-23 0 -32 -8.5t-9 -34.5v-634q0 -30 10 -37t32 -7v-20h-165z
M482 897q-2 -19 -8 -36t-16.5 -30.5t-25.5 -21.5t-35 -8q-17 0 -32 4.5t-29 9.5q-11 4 -23.5 8.5t-23.5 4.5q-14 0 -20 -6.5t-10 -20.5h-51q2 41 25 68.5t62 27.5q18 0 32.5 -4.5t26.5 -9.5q9 -5 20 -9t22 -4q27 0 32 27h54z" />
    <glyph glyph-name="Ograve" unicode="&#xd2;" horiz-adv-x="736" 
d="M562 379q0 58 -13 109t-37.5 88.5t-61 59t-82.5 21.5q-44 0 -79.5 -20t-61 -56.5t-39.5 -87.5t-14 -113q0 -55 13 -105t38 -87.5t61 -59.5t82 -22t82.5 23t61 61t37.5 87t13 102zM701 380q0 -87 -22 -159t-65 -123.5t-105 -80t-141 -28.5q-76 0 -137.5 26.5t-105 77
t-67 123t-23.5 164.5q0 86 23.5 158.5t67 125t105 81.5t137.5 29t137.5 -29t105 -81.5t67 -125t23.5 -158.5zM323 801l-114 87h123l73 -87h-82z" />
    <glyph glyph-name="Oacute" unicode="&#xd3;" horiz-adv-x="736" 
d="M562 379q0 58 -13 109t-37.5 88.5t-61 59t-82.5 21.5q-44 0 -79.5 -20t-61 -56.5t-39.5 -87.5t-14 -113q0 -55 13 -105t38 -87.5t61 -59.5t82 -22t82.5 23t61 61t37.5 87t13 102zM701 380q0 -87 -22 -159t-65 -123.5t-105 -80t-141 -28.5q-76 0 -137.5 26.5t-105 77
t-67 123t-23.5 164.5q0 86 23.5 158.5t67 125t105 81.5t137.5 29t137.5 -29t105 -81.5t67 -125t23.5 -158.5zM400 801h-82l73 87h123z" />
    <glyph glyph-name="Ocircumflex" unicode="&#xd4;" horiz-adv-x="736" 
d="M562 379q0 58 -13 109t-37.5 88.5t-61 59t-82.5 21.5q-44 0 -79.5 -20t-61 -56.5t-39.5 -87.5t-14 -113q0 -55 13 -105t38 -87.5t61 -59.5t82 -22t82.5 23t61 61t37.5 87t13 102zM701 380q0 -87 -22 -159t-65 -123.5t-105 -80t-141 -28.5q-76 0 -137.5 26.5t-105 77
t-67 123t-23.5 164.5q0 86 23.5 158.5t67 125t105 81.5t137.5 29t137.5 -29t105 -81.5t67 -125t23.5 -158.5zM412 801l-45 48l-44 -48h-91l88 92h94l91 -92h-93z" />
    <glyph glyph-name="Otilde" unicode="&#xd5;" horiz-adv-x="736" 
d="M562 379q0 58 -13 109t-37.5 88.5t-61 59t-82.5 21.5q-44 0 -79.5 -20t-61 -56.5t-39.5 -87.5t-14 -113q0 -55 13 -105t38 -87.5t61 -59.5t82 -22t82.5 23t61 61t37.5 87t13 102zM701 380q0 -87 -22 -159t-65 -123.5t-105 -80t-141 -28.5q-76 0 -137.5 26.5t-105 77
t-67 123t-23.5 164.5q0 86 23.5 158.5t67 125t105 81.5t137.5 29t137.5 -29t105 -81.5t67 -125t23.5 -158.5zM506 897q-2 -19 -8 -36t-16.5 -30.5t-25.5 -21.5t-35 -8q-17 0 -32 4.5t-29 9.5q-11 4 -23.5 8.5t-23.5 4.5q-14 0 -20 -6.5t-10 -20.5h-51q2 41 25 68.5t62 27.5
q18 0 32.5 -4.5t26.5 -9.5q9 -5 20 -9t22 -4q27 0 32 27h54z" />
    <glyph glyph-name="Odieresis" unicode="&#xd6;" horiz-adv-x="736" 
d="M562 379q0 58 -13 109t-37.5 88.5t-61 59t-82.5 21.5q-44 0 -79.5 -20t-61 -56.5t-39.5 -87.5t-14 -113q0 -55 13 -105t38 -87.5t61 -59.5t82 -22t82.5 23t61 61t37.5 87t13 102zM701 380q0 -87 -22 -159t-65 -123.5t-105 -80t-141 -28.5q-76 0 -137.5 26.5t-105 77
t-67 123t-23.5 164.5q0 86 23.5 158.5t67 125t105 81.5t137.5 29t137.5 -29t105 -81.5t67 -125t23.5 -158.5zM320 850q0 -21 -17.5 -35t-42.5 -14t-42.5 14t-17.5 35t17.5 34.5t42.5 13.5q24 0 42 -13.5t18 -34.5zM533 850q0 -21 -17.5 -35t-42.5 -14t-42.5 14t-17.5 35
t18 34.5t42 13.5q25 0 42.5 -13.5t17.5 -34.5z" />
    <glyph glyph-name="multiply" unicode="&#xd7;" horiz-adv-x="447" 
d="M329 156l-106 106l-104 -104l-65 64l105 105l-105 105l65 65l104 -106l106 107l64 -64l-105 -107l105 -105z" />
    <glyph glyph-name="Oslash" unicode="&#xd8;" 
d="M555 379q0 102 -35 177l-256 -413q44 -41 105 -41q46 0 81 23.5t58.5 62t35 88.5t11.5 103zM481 614q-45 47 -112 47q-44 0 -78.5 -20.5t-58.5 -58t-36.5 -89t-12.5 -113.5q0 -52 10.5 -99t30.5 -85zM698 380q0 -87 -21.5 -159t-63.5 -123.5t-103.5 -80t-140.5 -28.5
q-101 0 -173 45l-58 -93l-51 33l61 98q-52 51 -80 128t-28 180q0 86 23 158.5t65.5 125t103.5 81.5t137 29q52 0 96.5 -13.5t81.5 -39.5l51 82l55 -33l-57 -92q49 -53 75.5 -129t26.5 -169z" />
    <glyph glyph-name="Ugrave" unicode="&#xd9;" horiz-adv-x="689" 
d="M654 741q-23 0 -32 -9t-9 -37v-514q0 -22 3.5 -39t11.5 -27v-2q-35 -28 -68 -51t-66.5 -39t-69 -25t-76.5 -9q-44 0 -80.5 7t-70 22t-66 38t-68.5 55v2q7 13 10 31t3 35v511q0 29 -7 40t-34 11v20h217v-20q-25 0 -33 -10t-8 -41v-474q0 -54 32 -82t108 -28q71 0 101.5 31
t30.5 77v479q0 29 -8.5 38.5t-32.5 9.5v20h212v-20zM313 801l-114 87h123l73 -87h-82z" />
    <glyph glyph-name="Uacute" unicode="&#xda;" horiz-adv-x="689" 
d="M654 741q-23 0 -32 -9t-9 -37v-514q0 -22 3.5 -39t11.5 -27v-2q-35 -28 -68 -51t-66.5 -39t-69 -25t-76.5 -9q-44 0 -80.5 7t-70 22t-66 38t-68.5 55v2q7 13 10 31t3 35v511q0 29 -7 40t-34 11v20h217v-20q-25 0 -33 -10t-8 -41v-474q0 -54 32 -82t108 -28q71 0 101.5 31
t30.5 77v479q0 29 -8.5 38.5t-32.5 9.5v20h212v-20zM385 801h-82l73 87h123z" />
    <glyph glyph-name="Ucircumflex" unicode="&#xdb;" horiz-adv-x="689" 
d="M654 741q-23 0 -32 -9t-9 -37v-514q0 -22 3.5 -39t11.5 -27v-2q-35 -28 -68 -51t-66.5 -39t-69 -25t-76.5 -9q-44 0 -80.5 7t-70 22t-66 38t-68.5 55v2q7 13 10 31t3 35v511q0 29 -7 40t-34 11v20h217v-20q-25 0 -33 -10t-8 -41v-474q0 -54 32 -82t108 -28q71 0 101.5 31
t30.5 77v479q0 29 -8.5 38.5t-32.5 9.5v20h212v-20zM398 801l-45 48l-44 -48h-91l88 92h94l91 -92h-93z" />
    <glyph glyph-name="Udieresis" unicode="&#xdc;" horiz-adv-x="689" 
d="M654 741q-23 0 -32 -9t-9 -37v-514q0 -22 3.5 -39t11.5 -27v-2q-35 -28 -68 -51t-66.5 -39t-69 -25t-76.5 -9q-44 0 -80.5 7t-70 22t-66 38t-68.5 55v2q7 13 10 31t3 35v511q0 29 -7 40t-34 11v20h217v-20q-25 0 -33 -10t-8 -41v-474q0 -54 32 -82t108 -28q71 0 101.5 31
t30.5 77v479q0 29 -8.5 38.5t-32.5 9.5v20h212v-20zM303 850q0 -21 -17.5 -35t-42.5 -14t-42.5 14t-17.5 35t17.5 34.5t42.5 13.5q24 0 42 -13.5t18 -34.5zM516 850q0 -21 -17.5 -35t-42.5 -14t-42.5 14t-17.5 35t18 34.5t42 13.5q25 0 42.5 -13.5t17.5 -34.5z" />
    <glyph glyph-name="Yacute" unicode="&#xdd;" horiz-adv-x="665" 
d="M651 741q-11 0 -18.5 -1.5t-13 -6.5t-11 -14t-13.5 -24l-196 -379v-248q0 -29 8.5 -38.5t32.5 -9.5v-20h-217v20q23 0 32 9.5t9 38.5v248l-194 377q-8 15 -13.5 24.5t-11 15t-12.5 7t-19 1.5v20h221v-20q-25 0 -25 -15q0 -11 7 -26l121 -264h2l117 260q9 19 9 33
q0 6 -5.5 9t-20.5 3v20h211v-20zM394 801h-82l73 87h123z" />
    <glyph glyph-name="Thorn" unicode="&#xde;" horiz-adv-x="637" 
d="M467 377q0 67 -47 99t-120 32h-48t-36 -1v-257q36 -3 79 -3q90 0 131 35t41 95zM607 377q0 -55 -20.5 -99t-61 -75.5t-99.5 -48.5t-135 -17q-16 0 -37.5 1t-37.5 3v-73q0 -29 9 -38.5t32 -9.5v-20h-217v20q25 0 33 9.5t8 38.5v625q0 29 -8 38.5t-33 9.5v20h217v-20
q-24 0 -32.5 -9.5t-8.5 -38.5v-73q23 1 38.5 1h34.5q77 0 136.5 -13t100 -42.5t61 -76t20.5 -112.5z" />
    <glyph glyph-name="germandbls" unicode="&#xdf;" horiz-adv-x="509" 
d="M449 428q-29 -47 -68 -77t-99 -30q-29 0 -57 10.5t-52 23.5t-43 23.5t-32 10.5q-19 0 -30 -8l-8 12q28 32 59 50.5t73 18.5q19 0 43 -6.5t50 -15t52.5 -15t50.5 -6.5q18 0 30 5t21 14z" />
    <glyph glyph-name="agrave" unicode="&#xe0;" horiz-adv-x="571" 
d="M276 461h-2l-69 -261q15 -4 37 -7t39 -3q20 0 40 3t34 7zM375 0v20q25 0 25 22q0 4 -1 9.5t-3 10.5l-13 41q-44 -11 -102 -11q-27 0 -54.5 3t-49.5 8l-14 -44q-3 -11 -3 -20q0 -19 31 -19v-20h-181v20q14 0 22 7t16 33l156 482q2 7 5 16.5t3 14.5q0 7 -3 11t-14 4v20h170
v-20q-13 0 -15.5 -7.5t-2.5 -9.5q0 -5 3.5 -15t6.5 -18l165 -475q9 -26 16 -34.5t23 -8.5v-20h-186zM263 681l-114 87h123l73 -87h-82z" />
    <glyph glyph-name="aacute" unicode="&#xe1;" horiz-adv-x="571" 
d="M276 461h-2l-69 -261q15 -4 37 -7t39 -3q20 0 40 3t34 7zM375 0v20q25 0 25 22q0 4 -1 9.5t-3 10.5l-13 41q-44 -11 -102 -11q-27 0 -54.5 3t-49.5 8l-14 -44q-3 -11 -3 -20q0 -19 31 -19v-20h-181v20q14 0 22 7t16 33l156 482q2 7 5 16.5t3 14.5q0 7 -3 11t-14 4v20h170
v-20q-13 0 -15.5 -7.5t-2.5 -9.5q0 -5 3.5 -15t6.5 -18l165 -475q9 -26 16 -34.5t23 -8.5v-20h-186zM289 681h-82l73 87h123z" />
    <glyph glyph-name="acircumflex" unicode="&#xe2;" horiz-adv-x="571" 
d="M276 461h-2l-69 -261q15 -4 37 -7t39 -3q20 0 40 3t34 7zM375 0v20q25 0 25 22q0 4 -1 9.5t-3 10.5l-13 41q-44 -11 -102 -11q-27 0 -54.5 3t-49.5 8l-14 -44q-3 -11 -3 -20q0 -19 31 -19v-20h-181v20q14 0 22 7t16 33l156 482q2 7 5 16.5t3 14.5q0 7 -3 11t-14 4v20h170
v-20q-13 0 -15.5 -7.5t-2.5 -9.5q0 -5 3.5 -15t6.5 -18l165 -475q9 -26 16 -34.5t23 -8.5v-20h-186zM325 681l-45 48l-44 -48h-91l88 92h94l91 -92h-93z" />
    <glyph glyph-name="atilde" unicode="&#xe3;" horiz-adv-x="571" 
d="M276 461h-2l-69 -261q15 -4 37 -7t39 -3q20 0 40 3t34 7zM375 0v20q25 0 25 22q0 4 -1 9.5t-3 10.5l-13 41q-44 -11 -102 -11q-27 0 -54.5 3t-49.5 8l-14 -44q-3 -11 -3 -20q0 -19 31 -19v-20h-181v20q14 0 22 7t16 33l156 482q2 7 5 16.5t3 14.5q0 7 -3 11t-14 4v20h170
v-20q-13 0 -15.5 -7.5t-2.5 -9.5q0 -5 3.5 -15t6.5 -18l165 -475q9 -26 16 -34.5t23 -8.5v-20h-186zM422 775q-2 -19 -8 -36t-16.5 -30.5t-25.5 -21.5t-35 -8q-17 0 -32 4.5t-29 9.5q-11 4 -23.5 8.5t-23.5 4.5q-14 0 -20 -6.5t-10 -20.5h-51q2 41 25 68.5t62 27.5
q18 0 32.5 -4.5t26.5 -9.5q9 -5 20 -9t22 -4q27 0 32 27h54z" />
    <glyph glyph-name="adieresis" unicode="&#xe4;" horiz-adv-x="571" 
d="M276 461h-2l-69 -261q15 -4 37 -7t39 -3q20 0 40 3t34 7zM375 0v20q25 0 25 22q0 4 -1 9.5t-3 10.5l-13 41q-44 -11 -102 -11q-27 0 -54.5 3t-49.5 8l-14 -44q-3 -11 -3 -20q0 -19 31 -19v-20h-181v20q14 0 22 7t16 33l156 482q2 7 5 16.5t3 14.5q0 7 -3 11t-14 4v20h170
v-20q-13 0 -15.5 -7.5t-2.5 -9.5q0 -5 3.5 -15t6.5 -18l165 -475q9 -26 16 -34.5t23 -8.5v-20h-186zM236 733q0 -21 -17.5 -35t-42.5 -14t-42.5 14t-17.5 35t17.5 34.5t42.5 13.5q24 0 42 -13.5t18 -34.5zM449 733q0 -21 -17.5 -35t-42.5 -14t-42.5 14t-17.5 35t18 34.5
t42 13.5q25 0 42.5 -13.5t17.5 -34.5z" />
    <glyph glyph-name="aring" unicode="&#xe5;" horiz-adv-x="571" 
d="M276 461h-2l-69 -261q15 -4 37 -7t39 -3q20 0 40 3t34 7zM313 725q0 11 -10.5 19.5t-25.5 8.5t-24.5 -8.5t-9.5 -19.5t9.5 -19t24.5 -8t25.5 8t10.5 19zM375 0v20q25 0 25 22q0 4 -1 9.5t-3 10.5l-13 41q-44 -11 -102 -11q-27 0 -54.5 3t-49.5 8l-14 -44q-3 -11 -3 -20
q0 -19 31 -19v-20h-181v20q14 0 22 7t16 33l156 482q2 7 5 16.5t3 14.5q0 7 -3 11t-14 4v20h170v-20q-13 0 -15.5 -7.5t-2.5 -9.5q0 -5 3.5 -15t6.5 -18l165 -475q9 -26 16 -34.5t23 -8.5v-20h-186zM358 726q0 -28 -24 -46t-56 -18t-57 18t-25 46t25 46t57 18t56 -18t24 -46
z" />
    <glyph glyph-name="ae" unicode="&#xe6;" horiz-adv-x="872" 
d="M417 486h-2l-152 -286q15 -4 39 -7t41 -3q20 0 40 3t34 7v286zM805 -9q-24 9 -48 9h-373v20q21 0 26.5 7t6.5 29l1 48q-21 -5 -47 -8.5t-54 -3.5q-27 0 -54 3t-49 8l-24 -44q-3 -5 -3.5 -10.5t-0.5 -9.5q0 -19 32 -19v-20h-204v20q14 0 24 8.5t23 31.5l271 482
q4 7 6 16.5t2 14.5q0 7 -3 11t-14 4v20h441q10 0 20.5 2t18.5 4l32 -135l-21 -6q-14 37 -53 37h-226v-128h211q19 0 25.5 6t8.5 22h20v-154h-20q-2 18 -8 23t-26 5h-211v-186h231q25 0 34 14t17 33l22 -7z" />
    <glyph glyph-name="ccedilla" unicode="&#xe7;" horiz-adv-x="536" 
d="M476 1l-12 2q-5 1 -11 1.5t-12 0.5q-14 0 -40 -5t-52 -7l-12 -26v-2q7 1 21 2t25 1q17 0 33.5 -4t29.5 -12t21 -19.5t8 -26.5q0 -32 -29 -53t-100 -21q-28 0 -46 2t-42 7l16 39q12 -3 23 -4.5t28 -1.5q36 0 49.5 7.5t13.5 18.5t-10.5 18.5t-33.5 7.5q-17 0 -26.5 -1
t-23.5 -4l-21 21l24 51q-58 5 -107 27.5t-84.5 61.5t-55.5 94t-20 126q0 76 22.5 134.5t63 98.5t95 61t119.5 21q13 0 28 -2l30 -4t28.5 -4t21.5 -2q11 0 22 3.5t13 4.5l29 -164l-22 -7q-8 17 -18.5 30t-27.5 22t-41.5 14t-59.5 5q-85 0 -133 -54.5t-48 -154.5q0 -52 14 -91
t38.5 -65t58.5 -39t74 -13q66 0 98 18t48 54l21 -5z" />
    <glyph glyph-name="egrave" unicode="&#xe8;" horiz-adv-x="523" 
d="M456 -9q-11 5 -23 7t-25 2h-373v20q21 0 27 7t6 29v496q0 22 -6 29t-27 7v20h376q16 0 25.5 2t17.5 4l32 -135l-21 -6q-7 17 -18 27t-37 10h-224v-128h211q19 0 25.5 6t8.5 22h20v-154h-20q-2 18 -8 23t-26 5h-211v-186h229q25 0 35.5 13.5t17.5 33.5l22 -7zM247 681
l-114 87h123l73 -87h-82z" />
    <glyph glyph-name="eacute" unicode="&#xe9;" horiz-adv-x="523" 
d="M456 -9q-11 5 -23 7t-25 2h-373v20q21 0 27 7t6 29v496q0 22 -6 29t-27 7v20h376q16 0 25.5 2t17.5 4l32 -135l-21 -6q-7 17 -18 27t-37 10h-224v-128h211q19 0 25.5 6t8.5 22h20v-154h-20q-2 18 -8 23t-26 5h-211v-186h229q25 0 35.5 13.5t17.5 33.5l22 -7zM292 681h-82
l73 87h123z" />
    <glyph glyph-name="ecircumflex" unicode="&#xea;" horiz-adv-x="523" 
d="M456 -9q-11 5 -23 7t-25 2h-373v20q21 0 27 7t6 29v496q0 22 -6 29t-27 7v20h376q16 0 25.5 2t17.5 4l32 -135l-21 -6q-7 17 -18 27t-37 10h-224v-128h211q19 0 25.5 6t8.5 22h20v-154h-20q-2 18 -8 23t-26 5h-211v-186h229q25 0 35.5 13.5t17.5 33.5l22 -7zM297 681
l-45 48l-44 -48h-91l88 92h94l91 -92h-93z" />
    <glyph glyph-name="edieresis" unicode="&#xeb;" horiz-adv-x="523" 
d="M456 -9q-11 5 -23 7t-25 2h-373v20q21 0 27 7t6 29v496q0 22 -6 29t-27 7v20h376q16 0 25.5 2t17.5 4l32 -135l-21 -6q-7 17 -18 27t-37 10h-224v-128h211q19 0 25.5 6t8.5 22h20v-154h-20q-2 18 -8 23t-26 5h-211v-186h229q25 0 35.5 13.5t17.5 33.5l22 -7zM225 733
q0 -21 -17.5 -35t-42.5 -14t-42.5 14t-17.5 35t17.5 34.5t42.5 13.5q24 0 42 -13.5t18 -34.5zM438 733q0 -21 -17.5 -35t-42.5 -14t-42.5 14t-17.5 35t18 34.5t42 13.5q25 0 42.5 -13.5t17.5 -34.5z" />
    <glyph glyph-name="igrave" unicode="&#xec;" horiz-adv-x="255" 
d="M35 0v20q21 0 27.5 7t6.5 29v496q0 22 -6.5 29t-27.5 7v20h185v-20q-20 0 -26.5 -7t-6.5 -29v-496q0 -22 6.5 -29t26.5 -7v-20h-185zM128 681l-114 87h123l73 -87h-82z" />
    <glyph glyph-name="iacute" unicode="&#xed;" horiz-adv-x="255" 
d="M35 0v20q21 0 27.5 7t6.5 29v496q0 22 -6.5 29t-27.5 7v20h185v-20q-20 0 -26.5 -7t-6.5 -29v-496q0 -22 6.5 -29t26.5 -7v-20h-185zM124 681h-82l73 87h123z" />
    <glyph glyph-name="icircumflex" unicode="&#xee;" horiz-adv-x="255" 
d="M35 0v20q21 0 27.5 7t6.5 29v496q0 22 -6.5 29t-27.5 7v20h185v-20q-20 0 -26.5 -7t-6.5 -29v-496q0 -22 6.5 -29t26.5 -7v-20h-185zM172 681l-45 48l-44 -48h-91l88 92h94l91 -92h-93z" />
    <glyph glyph-name="idieresis" unicode="&#xef;" horiz-adv-x="255" 
d="M35 0v20q21 0 27.5 7t6.5 29v496q0 22 -6.5 29t-27.5 7v20h185v-20q-20 0 -26.5 -7t-6.5 -29v-496q0 -22 6.5 -29t26.5 -7v-20h-185zM107 733q0 -21 -17.5 -35t-42.5 -14t-42.5 14t-17.5 35t17.5 34.5t42.5 13.5q24 0 42 -13.5t18 -34.5zM269 733q0 -21 -17.5 -35
t-42.5 -14t-42.5 14t-17.5 35t18 34.5t42 13.5q25 0 42.5 -13.5t17.5 -34.5z" />
    <glyph glyph-name="eth" unicode="&#xf0;" horiz-adv-x="590" 
d="M432 306q0 51 -14.5 91t-40 67t-61 41t-77.5 14q-11 0 -26.5 -1t-29.5 -1v-181h135v-67h-135v-180q11 -1 28 -1.5t28 -0.5q50 0 86.5 16.5t60 46t35 69.5t11.5 87zM558 309q0 -65 -16.5 -122.5t-56.5 -100.5t-106.5 -67.5t-166.5 -24.5q-20 0 -44 0.5t-48 1.5t-47 2
t-41 2v20q21 1 27 7t6 24v218h-59v67h59v219q0 20 -6.5 26.5t-26.5 6.5v20q41 2 91 3t95 1q88 0 152 -22.5t106 -63t62 -96t20 -121.5z" />
    <glyph glyph-name="ntilde" unicode="&#xf1;" horiz-adv-x="584" 
d="M409 0q0 25 -11 43l-222 365h-2v-352q0 -23 7 -29.5t28 -6.5v-20h-174v20q21 0 27 6.5t6 29.5v501q0 18 -6.5 24.5t-26.5 6.5v20h163q1 -8 4 -19t13 -28l192 -317h2v313q0 18 -7 24.5t-27 6.5v20h174v-20q-20 0 -27 -6t-7 -26v-503q0 -20 7.5 -26.5t26.5 -6.5v-20h-140z
M429 775q-2 -19 -8 -36t-16.5 -30.5t-25.5 -21.5t-35 -8q-17 0 -32 4.5t-29 9.5q-11 4 -23.5 8.5t-23.5 4.5q-14 0 -20 -6.5t-10 -20.5h-51q2 41 25 68.5t62 27.5q18 0 32.5 -4.5t26.5 -9.5q9 -5 20 -9t22 -4q27 0 32 27h54z" />
    <glyph glyph-name="ograve" unicode="&#xf2;" horiz-adv-x="613" 
d="M461 303q0 46 -10 84.5t-29.5 66.5t-48.5 43.5t-67 15.5q-71 0 -112.5 -55t-41.5 -154q0 -43 10 -80.5t29.5 -66t48 -45t66.5 -16.5t67 16.5t48.5 45t29.5 66t10 79.5zM583 304q0 -69 -18.5 -126.5t-53.5 -99t-86.5 -64t-118.5 -22.5q-64 0 -115 21.5t-87 62t-55 98.5
t-19 130q0 69 19.5 126.5t55.5 99t87 64.5t114 23q64 0 115 -23t87 -64.5t55.5 -99t19.5 -126.5zM263 681l-114 87h123l73 -87h-82z" />
    <glyph glyph-name="oacute" unicode="&#xf3;" horiz-adv-x="613" 
d="M461 303q0 46 -10 84.5t-29.5 66.5t-48.5 43.5t-67 15.5q-71 0 -112.5 -55t-41.5 -154q0 -43 10 -80.5t29.5 -66t48 -45t66.5 -16.5t67 16.5t48.5 45t29.5 66t10 79.5zM583 304q0 -69 -18.5 -126.5t-53.5 -99t-86.5 -64t-118.5 -22.5q-64 0 -115 21.5t-87 62t-55 98.5
t-19 130q0 69 19.5 126.5t55.5 99t87 64.5t114 23q64 0 115 -23t87 -64.5t55.5 -99t19.5 -126.5zM342 681h-82l73 87h123z" />
    <glyph glyph-name="ocircumflex" unicode="&#xf4;" horiz-adv-x="613" 
d="M461 303q0 46 -10 84.5t-29.5 66.5t-48.5 43.5t-67 15.5q-71 0 -112.5 -55t-41.5 -154q0 -43 10 -80.5t29.5 -66t48 -45t66.5 -16.5t67 16.5t48.5 45t29.5 66t10 79.5zM583 304q0 -69 -18.5 -126.5t-53.5 -99t-86.5 -64t-118.5 -22.5q-64 0 -115 21.5t-87 62t-55 98.5
t-19 130q0 69 19.5 126.5t55.5 99t87 64.5t114 23q64 0 115 -23t87 -64.5t55.5 -99t19.5 -126.5zM350 681l-45 48l-44 -48h-91l88 92h94l91 -92h-93z" />
    <glyph glyph-name="otilde" unicode="&#xf5;" horiz-adv-x="613" 
d="M461 303q0 46 -10 84.5t-29.5 66.5t-48.5 43.5t-67 15.5q-71 0 -112.5 -55t-41.5 -154q0 -43 10 -80.5t29.5 -66t48 -45t66.5 -16.5t67 16.5t48.5 45t29.5 66t10 79.5zM583 304q0 -69 -18.5 -126.5t-53.5 -99t-86.5 -64t-118.5 -22.5q-64 0 -115 21.5t-87 62t-55 98.5
t-19 130q0 69 19.5 126.5t55.5 99t87 64.5t114 23q64 0 115 -23t87 -64.5t55.5 -99t19.5 -126.5zM439 775q-2 -19 -8 -36t-16.5 -30.5t-25.5 -21.5t-35 -8q-17 0 -32 4.5t-29 9.5q-11 4 -23.5 8.5t-23.5 4.5q-14 0 -20 -6.5t-10 -20.5h-51q2 41 25 68.5t62 27.5
q18 0 32.5 -4.5t26.5 -9.5q9 -5 20 -9t22 -4q27 0 32 27h54z" />
    <glyph glyph-name="odieresis" unicode="&#xf6;" horiz-adv-x="613" 
d="M461 303q0 46 -10 84.5t-29.5 66.5t-48.5 43.5t-67 15.5q-71 0 -112.5 -55t-41.5 -154q0 -43 10 -80.5t29.5 -66t48 -45t66.5 -16.5t67 16.5t48.5 45t29.5 66t10 79.5zM583 304q0 -69 -18.5 -126.5t-53.5 -99t-86.5 -64t-118.5 -22.5q-64 0 -115 21.5t-87 62t-55 98.5
t-19 130q0 69 19.5 126.5t55.5 99t87 64.5t114 23q64 0 115 -23t87 -64.5t55.5 -99t19.5 -126.5zM255 733q0 -21 -17.5 -35t-42.5 -14t-42.5 14t-17.5 35t17.5 34.5t42.5 13.5q24 0 42 -13.5t18 -34.5zM468 733q0 -21 -17.5 -35t-42.5 -14t-42.5 14t-17.5 35t18 34.5
t42 13.5q25 0 42.5 -13.5t17.5 -34.5z" />
    <glyph glyph-name="divide" unicode="&#xf7;" horiz-adv-x="447" 
d="M286 178q0 -26 -17.5 -44.5t-43.5 -18.5t-44 18.5t-18 44.5t18 43.5t44 17.5t43.5 -17.5t17.5 -43.5zM48 279v95h350v-95h-350zM286 475q0 -26 -17.5 -44t-43.5 -18t-44 18t-18 44t18 44t44 18t43.5 -18t17.5 -44z" />
    <glyph glyph-name="oslash" unicode="&#xf8;" horiz-adv-x="617" 
d="M398 489q-37 34 -90 34q-36 0 -64.5 -16t-48.5 -45.5t-30.5 -70t-10.5 -89.5q0 -46 11 -87.5t31 -70.5zM463 301q0 85 -31 143l-200 -337q16 -11 34.5 -17.5t41.5 -6.5q38 0 67 18.5t48.5 48.5t29.5 69.5t10 81.5zM585 302q0 -69 -18.5 -127t-53.5 -99t-86.5 -64
t-118.5 -23q-71 0 -129 28l-47 -79l-41 27l46 78q-51 40 -78 105.5t-27 153.5q0 69 19 126.5t55 99.5t87 65.5t115 23.5q41 0 76.5 -10t65.5 -28l42 71l46 -26l-46 -77q45 -42 69 -105t24 -140z" />
    <glyph glyph-name="ugrave" unicode="&#xf9;" horiz-adv-x="581" 
d="M551 588q-20 0 -27.5 -6t-7.5 -28v-411q0 -15 4.5 -30.5t10.5 -22.5v-2q-30 -23 -58 -40.5t-56.5 -30t-58.5 -19t-64 -6.5q-37 0 -68 5.5t-59.5 17t-56.5 29.5t-58 44v2q6 8 9 23t3 29v408q0 23 -5.5 30.5t-28.5 7.5v20h185v-20q-21 0 -27.5 -7t-6.5 -31v-357
q0 -52 25.5 -74.5t89.5 -22.5q59 0 83.5 23.5t24.5 72.5v360q0 23 -6.5 29.5t-26.5 6.5v20h180v-20zM263 681l-114 87h123l73 -87h-82z" />
    <glyph glyph-name="uacute" unicode="&#xfa;" horiz-adv-x="581" 
d="M551 588q-20 0 -27.5 -6t-7.5 -28v-411q0 -15 4.5 -30.5t10.5 -22.5v-2q-30 -23 -58 -40.5t-56.5 -30t-58.5 -19t-64 -6.5q-37 0 -68 5.5t-59.5 17t-56.5 29.5t-58 44v2q6 8 9 23t3 29v408q0 23 -5.5 30.5t-28.5 7.5v20h185v-20q-21 0 -27.5 -7t-6.5 -31v-357
q0 -52 25.5 -74.5t89.5 -22.5q59 0 83.5 23.5t24.5 72.5v360q0 23 -6.5 29.5t-26.5 6.5v20h180v-20zM336 681h-82l73 87h123z" />
    <glyph glyph-name="ucircumflex" unicode="&#xfb;" horiz-adv-x="581" 
d="M551 588q-20 0 -27.5 -6t-7.5 -28v-411q0 -15 4.5 -30.5t10.5 -22.5v-2q-30 -23 -58 -40.5t-56.5 -30t-58.5 -19t-64 -6.5q-37 0 -68 5.5t-59.5 17t-56.5 29.5t-58 44v2q6 8 9 23t3 29v408q0 23 -5.5 30.5t-28.5 7.5v20h185v-20q-21 0 -27.5 -7t-6.5 -31v-357
q0 -52 25.5 -74.5t89.5 -22.5q59 0 83.5 23.5t24.5 72.5v360q0 23 -6.5 29.5t-26.5 6.5v20h180v-20zM339 681l-45 48l-44 -48h-91l88 92h94l91 -92h-93z" />
    <glyph glyph-name="udieresis" unicode="&#xfc;" horiz-adv-x="581" 
d="M551 588q-20 0 -27.5 -6t-7.5 -28v-411q0 -15 4.5 -30.5t10.5 -22.5v-2q-30 -23 -58 -40.5t-56.5 -30t-58.5 -19t-64 -6.5q-37 0 -68 5.5t-59.5 17t-56.5 29.5t-58 44v2q6 8 9 23t3 29v408q0 23 -5.5 30.5t-28.5 7.5v20h185v-20q-21 0 -27.5 -7t-6.5 -31v-357
q0 -52 25.5 -74.5t89.5 -22.5q59 0 83.5 23.5t24.5 72.5v360q0 23 -6.5 29.5t-26.5 6.5v20h180v-20zM242 733q0 -21 -17.5 -35t-42.5 -14t-42.5 14t-17.5 35t17.5 34.5t42.5 13.5q24 0 42 -13.5t18 -34.5zM455 733q0 -21 -17.5 -35t-42.5 -14t-42.5 14t-17.5 35t18 34.5
t42 13.5q25 0 42.5 -13.5t17.5 -34.5z" />
    <glyph glyph-name="yacute" unicode="&#xfd;" horiz-adv-x="550" 
d="M536 588q-15 0 -22 -5.5t-20 -29.5l-161 -302v-195q0 -22 7 -29t27 -7v-20h-185v20q20 0 27 7t7 29v195l-159 300q-13 24 -21 30.5t-22 6.5v20h184v-20q-13 0 -16.5 -3t-3.5 -7q0 -6 1.5 -10.5t3.5 -9.5l97 -210h2l96 207q2 5 4.5 11.5t2.5 11.5q0 3 -3 6.5t-17 3.5v20
h171v-20zM319 681h-82l73 87h123z" />
    <glyph glyph-name="thorn" unicode="&#xfe;" horiz-adv-x="531" 
d="M387 299q0 57 -35.5 80.5t-101.5 23.5q-23 0 -38 -0.5t-29 -1.5v-201q14 -1 30.5 -2t33.5 -1q74 0 107 24t33 78zM509 299q0 -94 -68.5 -143.5t-197.5 -49.5q-13 0 -29.5 1t-30.5 2v-53q0 -22 6.5 -29t26.5 -7v-20h-184v20q21 0 27 7t6 29v496q0 22 -6 29t-27 7v20h184
v-20q-20 0 -26.5 -7t-6.5 -29v-56q18 1 31 1h28q130 0 198.5 -45.5t68.5 -152.5z" />
    <glyph glyph-name="ydieresis" unicode="&#xff;" horiz-adv-x="550" 
d="M536 588q-15 0 -22 -5.5t-20 -29.5l-161 -302v-195q0 -22 7 -29t27 -7v-20h-185v20q20 0 27 7t7 29v195l-159 300q-13 24 -21 30.5t-22 6.5v20h184v-20q-13 0 -16.5 -3t-3.5 -7q0 -6 1.5 -10.5t3.5 -9.5l97 -210h2l96 207q2 5 4.5 11.5t2.5 11.5q0 3 -3 6.5t-17 3.5v20
h171v-20zM231 733q0 -21 -17.5 -35t-42.5 -14t-42.5 14t-17.5 35t17.5 34.5t42.5 13.5q24 0 42 -13.5t18 -34.5zM444 733q0 -21 -17.5 -35t-42.5 -14t-42.5 14t-17.5 35t18 34.5t42 13.5q25 0 42.5 -13.5t17.5 -34.5z" />
    <glyph glyph-name="OE" unicode="&#x152;" horiz-adv-x="1032" 
d="M504 617q-23 20 -54 32t-86 12q-44 0 -78.5 -20.5t-58.5 -58t-36.5 -89t-12.5 -113.5q0 -55 12 -105.5t35 -88.5t58 -61t81 -23q59 0 91 11.5t49 25.5v478zM965 -8q-9 4 -25 6t-32 2h-453q-44 -11 -91 -11q-76 0 -137 26.5t-103.5 77t-65.5 123t-23 164.5q0 86 23 158.5
t65.5 125t103.5 81.5t137 29q52 0 94 -13h451q18 0 30.5 2.5t20.5 4.5l37 -160l-23 -6q-8 18 -21 32t-47 14h-267v-171h254q23 0 32 7.5t11 27.5h21v-185h-21q-2 22 -10 29.5t-33 7.5h-254v-250h277q30 0 42.5 12.5t20.5 32.5l23 -6z" />
    <glyph glyph-name="oe" unicode="&#x153;" horiz-adv-x="849" 
d="M405 503q-19 11 -41 15.5t-58 4.5t-64.5 -16t-48.5 -45.5t-30.5 -70t-10.5 -89.5q0 -44 10 -83.5t29.5 -69.5t48 -48t66.5 -18q37 0 58.5 6.5t40.5 17.5v396zM793 -9q-8 5 -21.5 7t-26.5 2h-338q-20 -5 -49 -8t-52 -3q-64 0 -115 21.5t-87 61.5t-55 98t-19 132
q0 69 19 126.5t55 99.5t87 65.5t115 23.5q20 0 45 -2t42 -7h359q10 0 20.5 2t18.5 4l32 -135l-21 -6q-7 18 -19 27.5t-32 9.5h-228v-128h211q19 0 25.5 6t8.5 22h20v-154h-20q-2 18 -8 23t-26 5h-211v-186h231q25 0 34.5 14.5t16.5 32.5l22 -7z" />
    <glyph glyph-name="Scaron" unicode="&#x160;" horiz-adv-x="542" 
d="M522 204q0 -103 -65.5 -159t-190.5 -56q-34 0 -62 4.5t-49.5 9.5t-36 9.5t-21.5 4.5q-13 0 -25.5 -3t-20.5 -6l-31 198l24 5q7 -21 20 -40.5t36.5 -33.5t59 -22.5t88.5 -8.5q70 0 106 20.5t36 67.5q0 38 -22 62t-64 47l-138 76q-57 31 -89 78t-32 113q0 50 20 88.5
t53.5 64t78 38.5t93.5 13q28 0 49.5 -2.5t37.5 -5.5t28 -5.5t21 -2.5q16 0 28 3q7 1 13 3l23 -187l-22 -5q-7 20 -19.5 36t-32 26.5t-48 16t-67.5 5.5q-37 0 -61.5 -6t-38.5 -16t-20 -24t-6 -29q0 -30 17.5 -49.5t60.5 -43.5l120 -66q31 -17 58.5 -38t47.5 -47t31.5 -59
t11.5 -74zM340 801h-94l-91 92h93l45 -48l44 48h91z" />
    <glyph glyph-name="scaron" unicode="&#x161;" horiz-adv-x="468" 
d="M443 166q0 -82 -56.5 -128t-162.5 -46q-51 0 -86 8t-47 8q-11 0 -21.5 -1t-18.5 -3l-26 170l23 4q4 -17 14.5 -32t30 -26t49.5 -17.5t75 -6.5q58 0 83.5 16t25.5 44q0 30 -14.5 47t-48.5 35l-118 62q-51 27 -75 65t-24 92q0 40 17.5 70.5t46.5 50t66.5 29.5t78.5 10
q29 0 56 -5.5t55 -5.5q5 0 12 0.5t12 1.5l12 2l20 -157l-22 -5q-12 35 -42.5 50t-96.5 15q-29 0 -48.5 -3.5t-30.5 -10t-15.5 -15t-4.5 -18.5q0 -23 12.5 -38t47.5 -34l99 -52q66 -35 94 -76t28 -100zM299 681h-94l-91 92h93l45 -48l44 48h91z" />
    <glyph glyph-name="Ydieresis" unicode="&#x178;" horiz-adv-x="665" 
d="M651 741q-11 0 -18.5 -1.5t-13 -6.5t-11 -14t-13.5 -24l-196 -379v-248q0 -29 8.5 -38.5t32.5 -9.5v-20h-217v20q23 0 32 9.5t9 38.5v248l-194 377q-8 15 -13.5 24.5t-11 15t-12.5 7t-19 1.5v20h221v-20q-25 0 -25 -15q0 -11 7 -26l121 -264h2l117 260q9 19 9 33
q0 6 -5.5 9t-20.5 3v20h211v-20zM284 850q0 -21 -17.5 -35t-42.5 -14t-42.5 14t-17.5 35t17.5 34.5t42.5 13.5q24 0 42 -13.5t18 -34.5zM497 850q0 -21 -17.5 -35t-42.5 -14t-42.5 14t-17.5 35t18 34.5t42 13.5q25 0 42.5 -13.5t17.5 -34.5z" />
    <glyph glyph-name="Zcaron" unicode="&#x17d;" horiz-adv-x="622" 
d="M551 -11q-8 2 -17 5q-8 2 -16.5 4t-15.5 2h-446l-26 46l356 602h-255q-26 0 -43.5 -10.5t-25.5 -35.5l-23 6l37 160q7 -2 15 -4q13 -3 31 -3h430l28 -49l-354 -596h285q19 0 34 11.5t24 38.5l23 -6zM364 801h-94l-91 92h93l45 -48l44 48h91z" />
    <glyph glyph-name="zcaron" unicode="&#x17e;" horiz-adv-x="523" 
d="M464 -9q-9 4 -20 6.5t-23 2.5h-374l-22 39l295 471h-209q-25 0 -38 -8.5t-20 -28.5l-21 6l32 135q7 -2 17 -4t22 -2h361l24 -41l-294 -469h228q22 0 34 12t20 35l22 -7zM322 681h-94l-91 92h93l45 -48l44 48h91z" />
    <glyph glyph-name="florin" unicode="&#x192;" horiz-adv-x="695" 
d="M594 627q-8 15 -15.5 25.5t-16.5 17t-21.5 9.5t-29.5 3q-35 0 -53 -24t-20 -62l-10 -157h97v-83h-105l-20 -277q-7 -98 -50 -148t-121 -50q-16 0 -31 2.5t-30 5.5q-5 1 -9.5 2t-9.5 1q-9 0 -15.5 -1t-14.5 -3l-39 160l22 6q15 -32 32.5 -43.5t49.5 -11.5q31 0 51 22
t23 63l20 272h-82v83h89l12 169q7 92 49.5 142t120.5 50q26 0 46 -5t37 -5q15 0 27 3l38 -160z" />
    <glyph glyph-name="circumflex" unicode="&#x2c6;" horiz-adv-x="590" 
d="M339 681l-45 48l-44 -48h-91l88 92h94l91 -92h-93z" />
    <glyph glyph-name="tilde" unicode="&#x2dc;" horiz-adv-x="590" 
d="M433 775q-2 -19 -8 -36t-16.5 -30.5t-25.5 -21.5t-35 -8q-17 0 -32 4.5t-29 9.5q-11 5 -23.5 9t-23.5 4q-14 0 -20 -6.5t-10 -20.5h-51q2 41 25 68.5t62 27.5q18 0 32.5 -4.5t26.5 -9.5q9 -5 20 -9t22 -4q27 0 32 27h54z" />
    <glyph glyph-name="endash" unicode="&#x2013;" horiz-adv-x="486" 
d="M40 274v104h406v-104h-406z" />
    <glyph glyph-name="emdash" unicode="&#x2014;" horiz-adv-x="760" 
d="M40 274v103h680v-103h-680z" />
    <glyph glyph-name="quoteleft" unicode="&#x2018;" horiz-adv-x="212" 
d="M182 646q0 -31 -22 -49t-52 -18q-40 0 -59 25t-19 60q0 46 36 85t91 58l24 -40q-23 -9 -40 -24t-23 -26q26 -3 45 -19.5t19 -51.5z" />
    <glyph glyph-name="quoteright" unicode="&#x2019;" horiz-adv-x="212" 
d="M182 690q0 -46 -36 -85t-91 -58l-24 40q23 9 40 24t23 26q-26 3 -45 19.5t-19 51.5q0 31 22 49t52 18q40 0 59 -25t19 -60z" />
    <glyph glyph-name="quotesinglbase" unicode="&#x201a;" horiz-adv-x="212" 
d="M182 44q0 -46 -36 -85t-91 -58l-24 40q23 9 40 24t23 26q-26 3 -45 19.5t-19 51.5q0 31 22 49t52 18q40 0 59 -25t19 -60z" />
    <glyph glyph-name="quotedblleft" unicode="&#x201c;" horiz-adv-x="409" 
d="M182 646q0 -31 -22 -49t-52 -18q-40 0 -59 25t-19 60q0 46 36 85t91 58l24 -40q-23 -9 -40 -24t-23 -26q26 -3 45 -19.5t19 -51.5zM379 646q0 -31 -22 -49t-52 -18q-40 0 -59 25t-19 60q0 46 36 85t91 58l24 -40q-23 -9 -40 -24t-23 -26q26 -3 45 -19.5t19 -51.5z" />
    <glyph glyph-name="quotedblright" unicode="&#x201d;" horiz-adv-x="409" 
d="M182 690q0 -46 -36 -85t-91 -58l-24 40q23 9 40 24t23 26q-26 3 -45 19.5t-19 51.5q0 31 22 49t52 18q40 0 59 -25t19 -60zM379 690q0 -46 -36 -85t-91 -58l-24 40q23 9 40 24t23 26q-26 3 -45 19.5t-19 51.5q0 31 22 49t52 18q40 0 59 -25t19 -60z" />
    <glyph glyph-name="quotedblbase" unicode="&#x201e;" horiz-adv-x="409" 
d="M182 44q0 -46 -36 -85t-91 -58l-24 40q23 9 40 24t23 26q-26 3 -45 19.5t-19 51.5q0 31 22 49t52 18q40 0 59 -25t19 -60zM379 44q0 -46 -36 -85t-91 -58l-24 40q23 9 40 24t23 26q-26 3 -45 19.5t-19 51.5q0 31 22 49t52 18q40 0 59 -25t19 -60z" />
    <glyph glyph-name="dagger" unicode="&#x2020;" horiz-adv-x="536" 
d="M478 455q-4 14 -17.5 22t-31.5 12l-117 22l32 -162l-57 -402h-38l-57 402l30 162l-115 -23q-18 -4 -31.5 -11.5t-17.5 -21.5h-18v170h18q7 -27 49 -33l114 -18l-15 135q-2 17 -9.5 24.5t-25.5 9.5v18h197v-18q-35 -4 -38 -34l-16 -135l115 19q21 4 32 11.5t16 21.5h19
v-171h-18z" />
    <glyph glyph-name="daggerdbl" unicode="&#x2021;" horiz-adv-x="536" 
d="M478 84q-7 28 -49 34l-112 18l12 -135q2 -14 10 -23.5t26 -11.5v-19h-194v19q18 2 25.5 10t9.5 25l15 134l-113 -18q-42 -6 -49 -33h-19v166h19q3 -14 14.5 -20.5t34.5 -10.5l114 -20l-30 161l30 149l-114 -20q-20 -4 -32.5 -11t-16.5 -21h-19v167h19q3 -14 13.5 -21.5
t35.5 -11.5l113 -17l-15 134q-2 17 -9.5 24.5t-25.5 9.5v19h195v-19q-18 -2 -26 -11t-10 -23l-13 -133l112 18q24 4 33.5 12t14.5 21h19v-171h-18q-7 26 -49 34l-113 21l28 -150l-28 -161l113 20q24 5 33.5 11.5t14.5 19.5h19v-166h-18z" />
    <glyph glyph-name="bullet" unicode="&#x2022;" horiz-adv-x="363" 
d="M303 370q0 -25 -9.5 -47.5t-26 -39t-39 -26t-47.5 -9.5t-47 9.5t-38.5 26t-26 39t-9.5 47.5t9.5 47.5t26 39t38.5 26t47 9.5t47.5 -9.5t39 -26t26 -39t9.5 -47.5z" />
    <glyph glyph-name="ellipsis" unicode="&#x2026;" horiz-adv-x="677" 
d="M181 64q0 -35 -21.5 -53t-52.5 -18t-54 18t-23 53q0 32 23 52.5t54 20.5t52.5 -20.5t21.5 -52.5zM414 64q0 -35 -21.5 -53t-52.5 -18t-54 18t-23 53q0 32 23 52.5t54 20.5t52.5 -20.5t21.5 -52.5zM647 64q0 -35 -21.5 -53t-52.5 -18t-54 18t-23 53q0 32 23 52.5t54 20.5
t52.5 -20.5t21.5 -52.5z" />
    <glyph glyph-name="perthousand" unicode="&#x2030;" horiz-adv-x="1364" 
d="M291 562q0 57 -20 84.5t-53 27.5t-52 -28.5t-19 -82.5q0 -57 18 -88t53 -31q38 0 55.5 30.5t17.5 87.5zM797 204q0 57 -20 84t-53 27t-52.5 -28t-19.5 -82q0 -57 18.5 -88t53.5 -31q38 0 55.5 30.5t17.5 87.5zM1218 204q0 57 -20 84t-53 27t-52.5 -28t-19.5 -82
q0 -57 18.5 -88t53.5 -31q38 0 55.5 30.5t17.5 87.5zM407 563q0 -48 -12.5 -88t-36.5 -68.5t-59 -44.5t-80 -16t-80 16t-59.5 44.5t-37 68.5t-12.5 88t15 86.5t40.5 65.5t60 42t73.5 15t73.5 -15t60 -42t40 -65.5t14.5 -86.5zM310 -9h-117l446 782h119zM913 206
q0 -48 -12.5 -88.5t-36.5 -69t-59 -44.5t-80 -16t-80 16t-59.5 45t-37 69t-12.5 88t15 86.5t40.5 65.5t60 41.5t73.5 14.5t73.5 -14.5t60 -41.5t40 -65.5t14.5 -86.5zM1334 206q0 -48 -12.5 -88.5t-36.5 -69t-59 -44.5t-80 -16t-80 16t-59.5 45t-37 69t-12.5 88t15 86.5
t40.5 65.5t60 41.5t73.5 14.5t73.5 -14.5t60 -41.5t40 -65.5t14.5 -86.5z" />
    <glyph glyph-name="guilsinglleft" unicode="&#x2039;" horiz-adv-x="261" 
d="M122 140l-92 181v5l92 176h109l-95 -180l95 -182h-109z" />
    <glyph glyph-name="guilsinglright" unicode="&#x203a;" horiz-adv-x="261" 
d="M139 140h-109l95 182l-95 180h109l92 -176v-5z" />
    <glyph glyph-name="Euro" unicode="&#x20ac;" horiz-adv-x="690" 
d="M620 0l-12 2q-5 1 -12 2t-15 1q-11 0 -26.5 -2.5t-34 -5.5t-37.5 -5.5t-36 -2.5q-70 0 -128 20t-102.5 58t-73 92.5t-40.5 124.5h-83l18 62h58q-1 8 -1 16.5v17.5v21t1 21h-76l18 62h67q13 67 42.5 120.5t73.5 91t101 58t126 20.5q15 0 33.5 -2.5t36.5 -5.5t33.5 -5.5
t25.5 -2.5q7 0 14 1t13 3q7 2 14 5l33 -170l-21 -4q-9 24 -27.5 37.5t-42.5 20t-52 8.5t-56 2q-81 0 -133.5 -47t-72.5 -130h260l-20 -62h-249q-1 -10 -1.5 -19.5t-0.5 -20.5v-18t1 -18h270l-20 -62h-241q20 -91 76.5 -137t135.5 -46q75 0 116.5 24t59.5 69l21 -4z" />
    <glyph glyph-name="trademark" unicode="&#x2122;" horiz-adv-x="579" 
d="M225 703q-2 8 -8 12t-12 4h-43v-183q0 -16 16 -16v-13h-89v13q16 0 16 16v183h-42q-6 0 -12 -4.5t-8 -11.5l-13 2l12 60q6 -2 10.5 -3t12.5 -1h140q4 0 9 0.5t11 2.5l12 -59zM431 507v13q10 0 13 4t3 10v113l-46 -79h-27l-42 77v-109q0 -7 3 -11.5t13 -4.5v-13h-88v13
q9 0 12 4t3 12v193q0 11 -3 15t-13 4v13h80q0 -14 4 -22l47 -88l49 88q5 11 4 22h76v-13q-10 0 -13 -3.5t-3 -14.5v-196q0 -7 3 -10.5t13 -3.5v-13h-88z" />
    </font>
</defs>
</svg>
